<?xml version="1.0" encoding="utf-8"?>
<svg xmlns="http://www.w3.org/2000/svg" xmlns:xlink="http://www.w3.org/1999/xlink" width="1000" height="750" viewBox="0 0 4000 3000">
<defs>
  <clipPath id="clip6400">
    <rect x="0" y="0" width="4000" height="3000"/>
  </clipPath>
</defs>
<path clip-path="url(#clip6400)" d="
M0 3000 L4000 3000 L4000 0 L0 0  Z
  " fill="#ffffff" fill-rule="evenodd" fill-opacity="1"/>
<defs>
  <clipPath id="clip6401">
    <rect x="800" y="0" width="2801" height="2801"/>
  </clipPath>
</defs>
<path clip-path="url(#clip6400)" d="
M242.516 825.619 L1952.76 825.619 L1952.76 121.675 L242.516 121.675  Z
  " fill="#ffffff" fill-rule="evenodd" fill-opacity="1"/>
<defs>
  <clipPath id="clip6402">
    <rect x="242" y="121" width="1711" height="705"/>
  </clipPath>
</defs>
<polyline clip-path="url(#clip6402)" style="stroke:#000000; stroke-width:2; stroke-opacity:0.1; fill:none" points="
  287.686,825.619 287.686,121.675 
  "/>
<polyline clip-path="url(#clip6402)" style="stroke:#000000; stroke-width:2; stroke-opacity:0.1; fill:none" points="
  611.019,825.619 611.019,121.675 
  "/>
<polyline clip-path="url(#clip6402)" style="stroke:#000000; stroke-width:2; stroke-opacity:0.1; fill:none" points="
  934.353,825.619 934.353,121.675 
  "/>
<polyline clip-path="url(#clip6402)" style="stroke:#000000; stroke-width:2; stroke-opacity:0.1; fill:none" points="
  1257.69,825.619 1257.69,121.675 
  "/>
<polyline clip-path="url(#clip6402)" style="stroke:#000000; stroke-width:2; stroke-opacity:0.1; fill:none" points="
  1581.02,825.619 1581.02,121.675 
  "/>
<polyline clip-path="url(#clip6402)" style="stroke:#000000; stroke-width:2; stroke-opacity:0.1; fill:none" points="
  1904.35,825.619 1904.35,121.675 
  "/>
<polyline clip-path="url(#clip6402)" style="stroke:#000000; stroke-width:2; stroke-opacity:0.1; fill:none" points="
  242.516,711.488 1952.76,711.488 
  "/>
<polyline clip-path="url(#clip6402)" style="stroke:#000000; stroke-width:2; stroke-opacity:0.1; fill:none" points="
  242.516,578.668 1952.76,578.668 
  "/>
<polyline clip-path="url(#clip6402)" style="stroke:#000000; stroke-width:2; stroke-opacity:0.1; fill:none" points="
  242.516,445.849 1952.76,445.849 
  "/>
<polyline clip-path="url(#clip6402)" style="stroke:#000000; stroke-width:2; stroke-opacity:0.1; fill:none" points="
  242.516,313.029 1952.76,313.029 
  "/>
<polyline clip-path="url(#clip6402)" style="stroke:#000000; stroke-width:2; stroke-opacity:0.1; fill:none" points="
  242.516,180.21 1952.76,180.21 
  "/>
<polyline clip-path="url(#clip6400)" style="stroke:#000000; stroke-width:4; stroke-opacity:1; fill:none" points="
  242.516,825.619 1952.76,825.619 
  "/>
<polyline clip-path="url(#clip6400)" style="stroke:#000000; stroke-width:4; stroke-opacity:1; fill:none" points="
  242.516,825.619 242.516,121.675 
  "/>
<polyline clip-path="url(#clip6400)" style="stroke:#000000; stroke-width:4; stroke-opacity:1; fill:none" points="
  287.686,825.619 287.686,817.171 
  "/>
<polyline clip-path="url(#clip6400)" style="stroke:#000000; stroke-width:4; stroke-opacity:1; fill:none" points="
  611.019,825.619 611.019,817.171 
  "/>
<polyline clip-path="url(#clip6400)" style="stroke:#000000; stroke-width:4; stroke-opacity:1; fill:none" points="
  934.353,825.619 934.353,817.171 
  "/>
<polyline clip-path="url(#clip6400)" style="stroke:#000000; stroke-width:4; stroke-opacity:1; fill:none" points="
  1257.69,825.619 1257.69,817.171 
  "/>
<polyline clip-path="url(#clip6400)" style="stroke:#000000; stroke-width:4; stroke-opacity:1; fill:none" points="
  1581.02,825.619 1581.02,817.171 
  "/>
<polyline clip-path="url(#clip6400)" style="stroke:#000000; stroke-width:4; stroke-opacity:1; fill:none" points="
  1904.35,825.619 1904.35,817.171 
  "/>
<polyline clip-path="url(#clip6400)" style="stroke:#000000; stroke-width:4; stroke-opacity:1; fill:none" points="
  242.516,711.488 263.039,711.488 
  "/>
<polyline clip-path="url(#clip6400)" style="stroke:#000000; stroke-width:4; stroke-opacity:1; fill:none" points="
  242.516,578.668 263.039,578.668 
  "/>
<polyline clip-path="url(#clip6400)" style="stroke:#000000; stroke-width:4; stroke-opacity:1; fill:none" points="
  242.516,445.849 263.039,445.849 
  "/>
<polyline clip-path="url(#clip6400)" style="stroke:#000000; stroke-width:4; stroke-opacity:1; fill:none" points="
  242.516,313.029 263.039,313.029 
  "/>
<polyline clip-path="url(#clip6400)" style="stroke:#000000; stroke-width:4; stroke-opacity:1; fill:none" points="
  242.516,180.21 263.039,180.21 
  "/>
<g clip-path="url(#clip6400)">
<text style="fill:#000000; fill-opacity:1; font-family:Arial,Helvetica Neue,Helvetica,sans-serif; font-size:48px; text-anchor:middle;" transform="rotate(0, 287.686, 887.619)" x="287.686" y="887.619">0</text>
</g>
<g clip-path="url(#clip6400)">
<text style="fill:#000000; fill-opacity:1; font-family:Arial,Helvetica Neue,Helvetica,sans-serif; font-size:48px; text-anchor:middle;" transform="rotate(0, 611.019, 887.619)" x="611.019" y="887.619">100</text>
</g>
<g clip-path="url(#clip6400)">
<text style="fill:#000000; fill-opacity:1; font-family:Arial,Helvetica Neue,Helvetica,sans-serif; font-size:48px; text-anchor:middle;" transform="rotate(0, 934.353, 887.619)" x="934.353" y="887.619">200</text>
</g>
<g clip-path="url(#clip6400)">
<text style="fill:#000000; fill-opacity:1; font-family:Arial,Helvetica Neue,Helvetica,sans-serif; font-size:48px; text-anchor:middle;" transform="rotate(0, 1257.69, 887.619)" x="1257.69" y="887.619">300</text>
</g>
<g clip-path="url(#clip6400)">
<text style="fill:#000000; fill-opacity:1; font-family:Arial,Helvetica Neue,Helvetica,sans-serif; font-size:48px; text-anchor:middle;" transform="rotate(0, 1581.02, 887.619)" x="1581.02" y="887.619">400</text>
</g>
<g clip-path="url(#clip6400)">
<text style="fill:#000000; fill-opacity:1; font-family:Arial,Helvetica Neue,Helvetica,sans-serif; font-size:48px; text-anchor:middle;" transform="rotate(0, 1904.35, 887.619)" x="1904.35" y="887.619">500</text>
</g>
<g clip-path="url(#clip6400)">
<text style="fill:#000000; fill-opacity:1; font-family:Arial,Helvetica Neue,Helvetica,sans-serif; font-size:48px; text-anchor:end;" transform="rotate(0, 202.516, 728.988)" x="202.516" y="728.988">0.8</text>
</g>
<g clip-path="url(#clip6400)">
<text style="fill:#000000; fill-opacity:1; font-family:Arial,Helvetica Neue,Helvetica,sans-serif; font-size:48px; text-anchor:end;" transform="rotate(0, 202.516, 596.168)" x="202.516" y="596.168">1.0</text>
</g>
<g clip-path="url(#clip6400)">
<text style="fill:#000000; fill-opacity:1; font-family:Arial,Helvetica Neue,Helvetica,sans-serif; font-size:48px; text-anchor:end;" transform="rotate(0, 202.516, 463.349)" x="202.516" y="463.349">1.2</text>
</g>
<g clip-path="url(#clip6400)">
<text style="fill:#000000; fill-opacity:1; font-family:Arial,Helvetica Neue,Helvetica,sans-serif; font-size:48px; text-anchor:end;" transform="rotate(0, 202.516, 330.529)" x="202.516" y="330.529">1.4</text>
</g>
<g clip-path="url(#clip6400)">
<text style="fill:#000000; fill-opacity:1; font-family:Arial,Helvetica Neue,Helvetica,sans-serif; font-size:48px; text-anchor:end;" transform="rotate(0, 202.516, 197.71)" x="202.516" y="197.71">1.6</text>
</g>
<g clip-path="url(#clip6400)">
<text style="fill:#000000; fill-opacity:1; font-family:Arial,Helvetica Neue,Helvetica,sans-serif; font-size:82px; text-anchor:middle;" transform="rotate(0, 1097.64, 72)" x="1097.64" y="72">parameters[1]</text>
</g>
<g clip-path="url(#clip6400)">
<text style="fill:#000000; fill-opacity:1; font-family:Arial,Helvetica Neue,Helvetica,sans-serif; font-size:66px; text-anchor:middle;" transform="rotate(0, 1097.64, 975.48)" x="1097.64" y="975.48">Iteration</text>
</g>
<g clip-path="url(#clip6400)">
<text style="fill:#000000; fill-opacity:1; font-family:Arial,Helvetica Neue,Helvetica,sans-serif; font-size:66px; text-anchor:middle;" transform="rotate(-90, 84.0485, 473.647)" x="84.0485" y="473.647">Sample value</text>
</g>
<polyline clip-path="url(#clip6402)" style="stroke:#009af9; stroke-width:4; stroke-opacity:1; fill:none" points="
  290.919,805.696 294.153,805.696 297.386,805.696 300.619,805.696 303.853,805.696 307.086,805.696 310.319,805.696 313.553,805.696 316.786,805.696 320.019,805.696 
  323.253,805.696 326.486,805.696 329.719,805.696 332.953,805.696 336.186,805.696 339.419,805.696 342.653,805.696 345.886,805.696 349.119,805.696 352.353,805.696 
  355.586,805.696 358.819,805.696 362.053,805.696 365.286,805.696 368.519,805.696 371.753,805.696 374.986,805.696 378.219,805.696 381.453,805.696 384.686,805.696 
  387.919,805.696 391.153,805.696 394.386,805.696 397.619,805.696 400.853,805.696 404.086,805.696 407.319,805.696 410.553,805.696 413.786,805.696 417.019,805.696 
  420.253,805.696 423.486,805.696 426.719,805.696 429.953,805.696 433.186,805.696 436.419,805.696 439.653,805.696 442.886,805.696 446.119,805.696 449.353,805.696 
  452.586,805.696 455.819,805.696 459.053,805.696 462.286,805.696 465.519,805.696 468.753,805.696 471.986,805.696 475.219,805.696 478.453,805.696 481.686,805.696 
  484.919,805.696 488.153,805.696 491.386,805.696 494.619,805.696 497.853,805.696 501.086,805.696 504.319,805.696 507.553,805.696 510.786,805.696 514.019,805.696 
  517.253,805.696 520.486,805.696 523.719,805.696 526.953,805.696 530.186,805.696 533.419,805.696 536.653,805.696 539.886,805.696 543.119,805.696 546.353,805.696 
  549.586,805.696 552.819,805.696 556.053,805.696 559.286,805.696 562.519,805.696 565.753,805.696 568.986,805.696 572.219,805.696 575.453,805.696 578.686,805.696 
  581.919,805.696 585.153,805.696 588.386,805.696 591.619,805.696 594.853,805.696 598.086,805.696 601.319,805.696 604.553,805.696 607.786,805.696 611.019,805.696 
  614.253,805.696 617.486,805.696 620.719,805.696 623.953,805.696 627.186,805.696 630.419,805.696 633.653,805.696 636.886,805.696 640.119,805.696 643.353,805.696 
  646.586,805.696 649.819,805.696 653.053,805.696 656.286,805.696 659.519,805.696 662.753,805.696 665.986,805.696 669.219,805.696 672.453,805.696 675.686,805.696 
  678.919,805.696 682.153,805.696 685.386,805.696 688.619,805.696 691.853,805.696 695.086,805.696 698.319,805.696 701.553,805.696 704.786,805.696 708.019,805.696 
  711.253,805.696 714.486,805.696 717.719,805.696 720.953,805.696 724.186,805.696 727.419,805.696 730.653,805.696 733.886,805.696 737.119,805.696 740.353,805.696 
  743.586,805.696 746.819,805.696 750.053,805.696 753.286,805.696 756.519,805.696 759.753,805.696 762.986,805.696 766.219,805.696 769.453,805.696 772.686,805.696 
  775.919,805.696 779.153,805.696 782.386,805.696 785.619,805.696 788.853,805.696 792.086,805.696 795.319,805.696 798.553,805.696 801.786,805.696 805.019,805.696 
  808.253,805.696 811.486,805.696 814.719,805.696 817.953,805.696 821.186,805.696 824.419,805.696 827.653,805.696 830.886,805.696 834.119,805.696 837.353,805.696 
  840.586,805.696 843.819,805.696 847.053,805.696 850.286,805.696 853.519,805.696 856.753,805.696 859.986,805.696 863.219,805.696 866.453,805.696 869.686,805.696 
  872.919,805.696 876.153,805.696 879.386,805.696 882.619,805.696 885.853,805.696 889.086,805.696 892.319,805.696 895.553,805.696 898.786,805.696 902.019,805.696 
  905.253,805.696 908.486,805.696 911.719,805.696 914.953,805.696 918.186,805.696 921.419,805.696 924.653,805.696 927.886,805.696 931.119,805.696 934.353,805.696 
  937.586,805.696 940.819,805.696 944.053,805.696 947.286,805.696 950.519,805.696 953.753,805.696 956.986,805.696 960.219,805.696 963.453,805.696 966.686,805.696 
  969.919,805.696 973.153,805.696 976.386,805.696 979.619,805.696 982.853,805.696 986.086,805.696 989.319,805.696 992.553,805.696 995.786,805.696 999.019,805.696 
  1002.25,805.696 1005.49,805.696 1008.72,805.696 1011.95,805.696 1015.19,805.696 1018.42,805.696 1021.65,805.696 1024.89,805.696 1028.12,805.696 1031.35,805.696 
  1034.59,805.696 1037.82,805.696 1041.05,805.696 1044.29,805.696 1047.52,805.696 1050.75,805.696 1053.99,805.696 1057.22,805.696 1060.45,805.696 1063.69,805.696 
  1066.92,805.696 1070.15,805.696 1073.39,805.696 1076.62,805.696 1079.85,805.696 1083.09,805.696 1086.32,805.696 1089.55,805.696 1092.79,805.696 1096.02,805.696 
  1099.25,805.696 1102.49,805.696 1105.72,805.696 1108.95,805.696 1112.19,805.696 1115.42,805.696 1118.65,805.696 1121.89,805.696 1125.12,805.696 1128.35,805.696 
  1131.59,805.696 1134.82,805.696 1138.05,805.696 1141.29,805.696 1144.52,805.696 1147.75,805.696 1150.99,805.696 1154.22,805.696 1157.45,805.696 1160.69,805.696 
  1163.92,805.696 1167.15,805.696 1170.39,805.696 1173.62,805.696 1176.85,805.696 1180.09,805.696 1183.32,805.696 1186.55,805.696 1189.79,805.696 1193.02,805.696 
  1196.25,805.696 1199.49,805.696 1202.72,805.696 1205.95,805.696 1209.19,805.696 1212.42,805.696 1215.65,805.696 1218.89,805.696 1222.12,805.696 1225.35,805.696 
  1228.59,805.696 1231.82,805.696 1235.05,805.696 1238.29,805.696 1241.52,805.696 1244.75,805.696 1247.99,805.696 1251.22,805.696 1254.45,805.696 1257.69,805.696 
  1260.92,805.696 1264.15,805.696 1267.39,805.696 1270.62,805.696 1273.85,805.696 1277.09,805.696 1280.32,805.696 1283.55,805.696 1286.79,805.696 1290.02,805.696 
  1293.25,805.696 1296.49,805.696 1299.72,805.696 1302.95,805.696 1306.19,805.696 1309.42,805.696 1312.65,805.696 1315.89,805.696 1319.12,805.696 1322.35,805.696 
  1325.59,805.696 1328.82,805.696 1332.05,805.696 1335.29,805.696 1338.52,805.696 1341.75,805.696 1344.99,805.696 1348.22,805.696 1351.45,805.696 1354.69,805.696 
  1357.92,805.696 1361.15,805.696 1364.39,805.696 1367.62,805.696 1370.85,805.696 1374.09,805.696 1377.32,805.696 1380.55,805.696 1383.79,805.696 1387.02,805.696 
  1390.25,805.696 1393.49,805.696 1396.72,805.696 1399.95,805.696 1403.19,805.696 1406.42,805.696 1409.65,805.696 1412.89,805.696 1416.12,805.696 1419.35,805.696 
  1422.59,805.696 1425.82,805.696 1429.05,805.696 1432.29,805.696 1435.52,805.696 1438.75,805.696 1441.99,805.696 1445.22,805.696 1448.45,805.696 1451.69,805.696 
  1454.92,805.696 1458.15,805.696 1461.39,805.696 1464.62,805.696 1467.85,805.696 1471.09,805.696 1474.32,805.696 1477.55,805.696 1480.79,805.696 1484.02,805.696 
  1487.25,805.696 1490.49,805.696 1493.72,805.696 1496.95,805.696 1500.19,805.696 1503.42,805.696 1506.65,805.696 1509.89,805.696 1513.12,805.696 1516.35,805.696 
  1519.59,805.696 1522.82,805.696 1526.05,805.696 1529.29,805.696 1532.52,805.696 1535.75,805.696 1538.99,805.696 1542.22,805.696 1545.45,805.696 1548.69,805.696 
  1551.92,805.696 1555.15,805.696 1558.39,805.696 1561.62,805.696 1564.85,805.696 1568.09,805.696 1571.32,805.696 1574.55,805.696 1577.79,805.696 1581.02,805.696 
  1584.25,805.696 1587.49,805.696 1590.72,805.696 1593.95,805.696 1597.19,805.696 1600.42,805.696 1603.65,805.696 1606.89,805.696 1610.12,805.696 1613.35,805.696 
  1616.59,805.696 1619.82,805.696 1623.05,805.696 1626.29,805.696 1629.52,805.696 1632.75,805.696 1635.99,805.696 1639.22,805.696 1642.45,805.696 1645.69,805.696 
  1648.92,805.696 1652.15,805.696 1655.39,805.696 1658.62,805.696 1661.85,805.696 1665.09,805.696 1668.32,805.696 1671.55,805.696 1674.79,805.696 1678.02,805.696 
  1681.25,805.696 1684.49,805.696 1687.72,805.696 1690.95,805.696 1694.19,805.696 1697.42,805.696 1700.65,805.696 1703.89,805.696 1707.12,805.696 1710.35,805.696 
  1713.59,805.696 1716.82,805.696 1720.05,805.696 1723.29,805.696 1726.52,805.696 1729.75,805.696 1732.99,805.696 1736.22,805.696 1739.45,805.696 1742.69,805.696 
  1745.92,805.696 1749.15,805.696 1752.39,805.696 1755.62,805.696 1758.85,805.696 1762.09,805.696 1765.32,805.696 1768.55,805.696 1771.79,805.696 1775.02,805.696 
  1778.25,805.696 1781.49,805.696 1784.72,805.696 1787.95,805.696 1791.19,805.696 1794.42,805.696 1797.65,805.696 1800.89,805.696 1804.12,805.696 1807.35,805.696 
  1810.59,805.696 1813.82,805.696 1817.05,805.696 1820.29,805.696 1823.52,805.696 1826.75,805.696 1829.99,805.696 1833.22,805.696 1836.45,805.696 1839.69,805.696 
  1842.92,805.696 1846.15,805.696 1849.39,805.696 1852.62,805.696 1855.85,805.696 1859.09,805.696 1862.32,805.696 1865.55,805.696 1868.79,805.696 1872.02,805.696 
  1875.25,805.696 1878.49,805.696 1881.72,805.696 1884.95,805.696 1888.19,805.696 1891.42,805.696 1894.65,805.696 1897.89,805.696 1901.12,805.696 1904.35,805.696 
  
  "/>
<path clip-path="url(#clip6400)" d="
M2242.52 825.619 L3952.76 825.619 L3952.76 121.675 L2242.52 121.675  Z
  " fill="#ffffff" fill-rule="evenodd" fill-opacity="1"/>
<defs>
  <clipPath id="clip6403">
    <rect x="2242" y="121" width="1711" height="705"/>
  </clipPath>
</defs>
<polyline clip-path="url(#clip6403)" style="stroke:#000000; stroke-width:2; stroke-opacity:0.1; fill:none" points="
  2519.8,825.619 2519.8,121.675 
  "/>
<polyline clip-path="url(#clip6403)" style="stroke:#000000; stroke-width:2; stroke-opacity:0.1; fill:none" points="
  2842.49,825.619 2842.49,121.675 
  "/>
<polyline clip-path="url(#clip6403)" style="stroke:#000000; stroke-width:2; stroke-opacity:0.1; fill:none" points="
  3165.17,825.619 3165.17,121.675 
  "/>
<polyline clip-path="url(#clip6403)" style="stroke:#000000; stroke-width:2; stroke-opacity:0.1; fill:none" points="
  3487.86,825.619 3487.86,121.675 
  "/>
<polyline clip-path="url(#clip6403)" style="stroke:#000000; stroke-width:2; stroke-opacity:0.1; fill:none" points="
  3810.55,825.619 3810.55,121.675 
  "/>
<polyline clip-path="url(#clip6403)" style="stroke:#000000; stroke-width:2; stroke-opacity:0.1; fill:none" points="
  2242.52,805.696 3952.76,805.696 
  "/>
<polyline clip-path="url(#clip6403)" style="stroke:#000000; stroke-width:2; stroke-opacity:0.1; fill:none" points="
  2242.52,639.671 3952.76,639.671 
  "/>
<polyline clip-path="url(#clip6403)" style="stroke:#000000; stroke-width:2; stroke-opacity:0.1; fill:none" points="
  2242.52,473.647 3952.76,473.647 
  "/>
<polyline clip-path="url(#clip6403)" style="stroke:#000000; stroke-width:2; stroke-opacity:0.1; fill:none" points="
  2242.52,307.622 3952.76,307.622 
  "/>
<polyline clip-path="url(#clip6403)" style="stroke:#000000; stroke-width:2; stroke-opacity:0.1; fill:none" points="
  2242.52,141.598 3952.76,141.598 
  "/>
<polyline clip-path="url(#clip6400)" style="stroke:#000000; stroke-width:4; stroke-opacity:1; fill:none" points="
  2242.52,825.619 3952.76,825.619 
  "/>
<polyline clip-path="url(#clip6400)" style="stroke:#000000; stroke-width:4; stroke-opacity:1; fill:none" points="
  2242.52,825.619 2242.52,121.675 
  "/>
<polyline clip-path="url(#clip6400)" style="stroke:#000000; stroke-width:4; stroke-opacity:1; fill:none" points="
  2519.8,825.619 2519.8,817.171 
  "/>
<polyline clip-path="url(#clip6400)" style="stroke:#000000; stroke-width:4; stroke-opacity:1; fill:none" points="
  2842.49,825.619 2842.49,817.171 
  "/>
<polyline clip-path="url(#clip6400)" style="stroke:#000000; stroke-width:4; stroke-opacity:1; fill:none" points="
  3165.17,825.619 3165.17,817.171 
  "/>
<polyline clip-path="url(#clip6400)" style="stroke:#000000; stroke-width:4; stroke-opacity:1; fill:none" points="
  3487.86,825.619 3487.86,817.171 
  "/>
<polyline clip-path="url(#clip6400)" style="stroke:#000000; stroke-width:4; stroke-opacity:1; fill:none" points="
  3810.55,825.619 3810.55,817.171 
  "/>
<polyline clip-path="url(#clip6400)" style="stroke:#000000; stroke-width:4; stroke-opacity:1; fill:none" points="
  2242.52,805.696 2263.04,805.696 
  "/>
<polyline clip-path="url(#clip6400)" style="stroke:#000000; stroke-width:4; stroke-opacity:1; fill:none" points="
  2242.52,639.671 2263.04,639.671 
  "/>
<polyline clip-path="url(#clip6400)" style="stroke:#000000; stroke-width:4; stroke-opacity:1; fill:none" points="
  2242.52,473.647 2263.04,473.647 
  "/>
<polyline clip-path="url(#clip6400)" style="stroke:#000000; stroke-width:4; stroke-opacity:1; fill:none" points="
  2242.52,307.622 2263.04,307.622 
  "/>
<polyline clip-path="url(#clip6400)" style="stroke:#000000; stroke-width:4; stroke-opacity:1; fill:none" points="
  2242.52,141.598 2263.04,141.598 
  "/>
<g clip-path="url(#clip6400)">
<text style="fill:#000000; fill-opacity:1; font-family:Arial,Helvetica Neue,Helvetica,sans-serif; font-size:48px; text-anchor:middle;" transform="rotate(0, 2519.8, 887.619)" x="2519.8" y="887.619">0.8</text>
</g>
<g clip-path="url(#clip6400)">
<text style="fill:#000000; fill-opacity:1; font-family:Arial,Helvetica Neue,Helvetica,sans-serif; font-size:48px; text-anchor:middle;" transform="rotate(0, 2842.49, 887.619)" x="2842.49" y="887.619">1.0</text>
</g>
<g clip-path="url(#clip6400)">
<text style="fill:#000000; fill-opacity:1; font-family:Arial,Helvetica Neue,Helvetica,sans-serif; font-size:48px; text-anchor:middle;" transform="rotate(0, 3165.17, 887.619)" x="3165.17" y="887.619">1.2</text>
</g>
<g clip-path="url(#clip6400)">
<text style="fill:#000000; fill-opacity:1; font-family:Arial,Helvetica Neue,Helvetica,sans-serif; font-size:48px; text-anchor:middle;" transform="rotate(0, 3487.86, 887.619)" x="3487.86" y="887.619">1.4</text>
</g>
<g clip-path="url(#clip6400)">
<text style="fill:#000000; fill-opacity:1; font-family:Arial,Helvetica Neue,Helvetica,sans-serif; font-size:48px; text-anchor:middle;" transform="rotate(0, 3810.55, 887.619)" x="3810.55" y="887.619">1.6</text>
</g>
<g clip-path="url(#clip6400)">
<text style="fill:#000000; fill-opacity:1; font-family:Arial,Helvetica Neue,Helvetica,sans-serif; font-size:48px; text-anchor:end;" transform="rotate(0, 2202.52, 823.196)" x="2202.52" y="823.196">0.00</text>
</g>
<g clip-path="url(#clip6400)">
<text style="fill:#000000; fill-opacity:1; font-family:Arial,Helvetica Neue,Helvetica,sans-serif; font-size:48px; text-anchor:end;" transform="rotate(0, 2202.52, 657.171)" x="2202.52" y="657.171">0.25</text>
</g>
<g clip-path="url(#clip6400)">
<text style="fill:#000000; fill-opacity:1; font-family:Arial,Helvetica Neue,Helvetica,sans-serif; font-size:48px; text-anchor:end;" transform="rotate(0, 2202.52, 491.147)" x="2202.52" y="491.147">0.50</text>
</g>
<g clip-path="url(#clip6400)">
<text style="fill:#000000; fill-opacity:1; font-family:Arial,Helvetica Neue,Helvetica,sans-serif; font-size:48px; text-anchor:end;" transform="rotate(0, 2202.52, 325.122)" x="2202.52" y="325.122">0.75</text>
</g>
<g clip-path="url(#clip6400)">
<text style="fill:#000000; fill-opacity:1; font-family:Arial,Helvetica Neue,Helvetica,sans-serif; font-size:48px; text-anchor:end;" transform="rotate(0, 2202.52, 159.098)" x="2202.52" y="159.098">1.00</text>
</g>
<g clip-path="url(#clip6400)">
<text style="fill:#000000; fill-opacity:1; font-family:Arial,Helvetica Neue,Helvetica,sans-serif; font-size:82px; text-anchor:middle;" transform="rotate(0, 3097.64, 72)" x="3097.64" y="72">parameters[1]</text>
</g>
<g clip-path="url(#clip6400)">
<text style="fill:#000000; fill-opacity:1; font-family:Arial,Helvetica Neue,Helvetica,sans-serif; font-size:66px; text-anchor:middle;" transform="rotate(0, 3097.64, 975.48)" x="3097.64" y="975.48">Sample value</text>
</g>
<g clip-path="url(#clip6400)">
<text style="fill:#000000; fill-opacity:1; font-family:Arial,Helvetica Neue,Helvetica,sans-serif; font-size:66px; text-anchor:middle;" transform="rotate(-90, 2057.29, 473.647)" x="2057.29" y="473.647">Density</text>
</g>
<polyline clip-path="url(#clip6403)" style="stroke:#009af9; stroke-width:4; stroke-opacity:1; fill:none" points="
  2290.92,805.696 2290.92,805.696 
  
  
  
  "/>
<path clip-path="url(#clip6400)" d="
M242.516 1825.62 L1952.76 1825.62 L1952.76 1121.68 L242.516 1121.68  Z
  " fill="#ffffff" fill-rule="evenodd" fill-opacity="1"/>
<defs>
  <clipPath id="clip6404">
    <rect x="242" y="1121" width="1711" height="705"/>
  </clipPath>
</defs>
<polyline clip-path="url(#clip6404)" style="stroke:#000000; stroke-width:2; stroke-opacity:0.1; fill:none" points="
  287.686,1825.62 287.686,1121.68 
  "/>
<polyline clip-path="url(#clip6404)" style="stroke:#000000; stroke-width:2; stroke-opacity:0.1; fill:none" points="
  611.019,1825.62 611.019,1121.68 
  "/>
<polyline clip-path="url(#clip6404)" style="stroke:#000000; stroke-width:2; stroke-opacity:0.1; fill:none" points="
  934.353,1825.62 934.353,1121.68 
  "/>
<polyline clip-path="url(#clip6404)" style="stroke:#000000; stroke-width:2; stroke-opacity:0.1; fill:none" points="
  1257.69,1825.62 1257.69,1121.68 
  "/>
<polyline clip-path="url(#clip6404)" style="stroke:#000000; stroke-width:2; stroke-opacity:0.1; fill:none" points="
  1581.02,1825.62 1581.02,1121.68 
  "/>
<polyline clip-path="url(#clip6404)" style="stroke:#000000; stroke-width:2; stroke-opacity:0.1; fill:none" points="
  1904.35,1825.62 1904.35,1121.68 
  "/>
<polyline clip-path="url(#clip6404)" style="stroke:#000000; stroke-width:2; stroke-opacity:0.1; fill:none" points="
  242.516,1689.6 1952.76,1689.6 
  "/>
<polyline clip-path="url(#clip6404)" style="stroke:#000000; stroke-width:2; stroke-opacity:0.1; fill:none" points="
  242.516,1523.57 1952.76,1523.57 
  "/>
<polyline clip-path="url(#clip6404)" style="stroke:#000000; stroke-width:2; stroke-opacity:0.1; fill:none" points="
  242.516,1357.55 1952.76,1357.55 
  "/>
<polyline clip-path="url(#clip6404)" style="stroke:#000000; stroke-width:2; stroke-opacity:0.1; fill:none" points="
  242.516,1191.53 1952.76,1191.53 
  "/>
<polyline clip-path="url(#clip6400)" style="stroke:#000000; stroke-width:4; stroke-opacity:1; fill:none" points="
  242.516,1825.62 1952.76,1825.62 
  "/>
<polyline clip-path="url(#clip6400)" style="stroke:#000000; stroke-width:4; stroke-opacity:1; fill:none" points="
  242.516,1825.62 242.516,1121.68 
  "/>
<polyline clip-path="url(#clip6400)" style="stroke:#000000; stroke-width:4; stroke-opacity:1; fill:none" points="
  287.686,1825.62 287.686,1817.17 
  "/>
<polyline clip-path="url(#clip6400)" style="stroke:#000000; stroke-width:4; stroke-opacity:1; fill:none" points="
  611.019,1825.62 611.019,1817.17 
  "/>
<polyline clip-path="url(#clip6400)" style="stroke:#000000; stroke-width:4; stroke-opacity:1; fill:none" points="
  934.353,1825.62 934.353,1817.17 
  "/>
<polyline clip-path="url(#clip6400)" style="stroke:#000000; stroke-width:4; stroke-opacity:1; fill:none" points="
  1257.69,1825.62 1257.69,1817.17 
  "/>
<polyline clip-path="url(#clip6400)" style="stroke:#000000; stroke-width:4; stroke-opacity:1; fill:none" points="
  1581.02,1825.62 1581.02,1817.17 
  "/>
<polyline clip-path="url(#clip6400)" style="stroke:#000000; stroke-width:4; stroke-opacity:1; fill:none" points="
  1904.35,1825.62 1904.35,1817.17 
  "/>
<polyline clip-path="url(#clip6400)" style="stroke:#000000; stroke-width:4; stroke-opacity:1; fill:none" points="
  242.516,1689.6 263.039,1689.6 
  "/>
<polyline clip-path="url(#clip6400)" style="stroke:#000000; stroke-width:4; stroke-opacity:1; fill:none" points="
  242.516,1523.57 263.039,1523.57 
  "/>
<polyline clip-path="url(#clip6400)" style="stroke:#000000; stroke-width:4; stroke-opacity:1; fill:none" points="
  242.516,1357.55 263.039,1357.55 
  "/>
<polyline clip-path="url(#clip6400)" style="stroke:#000000; stroke-width:4; stroke-opacity:1; fill:none" points="
  242.516,1191.53 263.039,1191.53 
  "/>
<g clip-path="url(#clip6400)">
<text style="fill:#000000; fill-opacity:1; font-family:Arial,Helvetica Neue,Helvetica,sans-serif; font-size:48px; text-anchor:middle;" transform="rotate(0, 287.686, 1887.62)" x="287.686" y="1887.62">0</text>
</g>
<g clip-path="url(#clip6400)">
<text style="fill:#000000; fill-opacity:1; font-family:Arial,Helvetica Neue,Helvetica,sans-serif; font-size:48px; text-anchor:middle;" transform="rotate(0, 611.019, 1887.62)" x="611.019" y="1887.62">100</text>
</g>
<g clip-path="url(#clip6400)">
<text style="fill:#000000; fill-opacity:1; font-family:Arial,Helvetica Neue,Helvetica,sans-serif; font-size:48px; text-anchor:middle;" transform="rotate(0, 934.353, 1887.62)" x="934.353" y="1887.62">200</text>
</g>
<g clip-path="url(#clip6400)">
<text style="fill:#000000; fill-opacity:1; font-family:Arial,Helvetica Neue,Helvetica,sans-serif; font-size:48px; text-anchor:middle;" transform="rotate(0, 1257.69, 1887.62)" x="1257.69" y="1887.62">300</text>
</g>
<g clip-path="url(#clip6400)">
<text style="fill:#000000; fill-opacity:1; font-family:Arial,Helvetica Neue,Helvetica,sans-serif; font-size:48px; text-anchor:middle;" transform="rotate(0, 1581.02, 1887.62)" x="1581.02" y="1887.62">400</text>
</g>
<g clip-path="url(#clip6400)">
<text style="fill:#000000; fill-opacity:1; font-family:Arial,Helvetica Neue,Helvetica,sans-serif; font-size:48px; text-anchor:middle;" transform="rotate(0, 1904.35, 1887.62)" x="1904.35" y="1887.62">500</text>
</g>
<g clip-path="url(#clip6400)">
<text style="fill:#000000; fill-opacity:1; font-family:Arial,Helvetica Neue,Helvetica,sans-serif; font-size:48px; text-anchor:end;" transform="rotate(0, 202.516, 1707.1)" x="202.516" y="1707.1">2.00</text>
</g>
<g clip-path="url(#clip6400)">
<text style="fill:#000000; fill-opacity:1; font-family:Arial,Helvetica Neue,Helvetica,sans-serif; font-size:48px; text-anchor:end;" transform="rotate(0, 202.516, 1541.07)" x="202.516" y="1541.07">2.25</text>
</g>
<g clip-path="url(#clip6400)">
<text style="fill:#000000; fill-opacity:1; font-family:Arial,Helvetica Neue,Helvetica,sans-serif; font-size:48px; text-anchor:end;" transform="rotate(0, 202.516, 1375.05)" x="202.516" y="1375.05">2.50</text>
</g>
<g clip-path="url(#clip6400)">
<text style="fill:#000000; fill-opacity:1; font-family:Arial,Helvetica Neue,Helvetica,sans-serif; font-size:48px; text-anchor:end;" transform="rotate(0, 202.516, 1209.03)" x="202.516" y="1209.03">2.75</text>
</g>
<g clip-path="url(#clip6400)">
<text style="fill:#000000; fill-opacity:1; font-family:Arial,Helvetica Neue,Helvetica,sans-serif; font-size:82px; text-anchor:middle;" transform="rotate(0, 1097.64, 1072)" x="1097.64" y="1072">parameters[2]</text>
</g>
<g clip-path="url(#clip6400)">
<text style="fill:#000000; fill-opacity:1; font-family:Arial,Helvetica Neue,Helvetica,sans-serif; font-size:66px; text-anchor:middle;" transform="rotate(0, 1097.64, 1975.48)" x="1097.64" y="1975.48">Iteration</text>
</g>
<g clip-path="url(#clip6400)">
<text style="fill:#000000; fill-opacity:1; font-family:Arial,Helvetica Neue,Helvetica,sans-serif; font-size:66px; text-anchor:middle;" transform="rotate(-90, 57.2861, 1473.65)" x="57.2861" y="1473.65">Sample value</text>
</g>
<polyline clip-path="url(#clip6404)" style="stroke:#009af9; stroke-width:4; stroke-opacity:1; fill:none" points="
  290.919,1805.7 294.153,1805.7 297.386,1805.7 300.619,1805.7 303.853,1805.7 307.086,1805.7 310.319,1805.7 313.553,1805.7 316.786,1805.7 320.019,1805.7 
  323.253,1805.7 326.486,1805.7 329.719,1805.7 332.953,1805.7 336.186,1805.7 339.419,1805.7 342.653,1805.7 345.886,1805.7 349.119,1805.7 352.353,1805.7 
  355.586,1805.7 358.819,1805.7 362.053,1805.7 365.286,1805.7 368.519,1805.7 371.753,1805.7 374.986,1805.7 378.219,1805.7 381.453,1805.7 384.686,1805.7 
  387.919,1805.7 391.153,1805.7 394.386,1805.7 397.619,1805.7 400.853,1805.7 404.086,1805.7 407.319,1805.7 410.553,1805.7 413.786,1805.7 417.019,1805.7 
  420.253,1805.7 423.486,1805.7 426.719,1805.7 429.953,1805.7 433.186,1805.7 436.419,1805.7 439.653,1805.7 442.886,1805.7 446.119,1805.7 449.353,1805.7 
  452.586,1805.7 455.819,1805.7 459.053,1805.7 462.286,1805.7 465.519,1805.7 468.753,1805.7 471.986,1805.7 475.219,1805.7 478.453,1805.7 481.686,1805.7 
  484.919,1805.7 488.153,1805.7 491.386,1805.7 494.619,1805.7 497.853,1805.7 501.086,1805.7 504.319,1805.7 507.553,1805.7 510.786,1805.7 514.019,1805.7 
  517.253,1805.7 520.486,1805.7 523.719,1805.7 526.953,1805.7 530.186,1805.7 533.419,1805.7 536.653,1805.7 539.886,1805.7 543.119,1805.7 546.353,1805.7 
  549.586,1805.7 552.819,1805.7 556.053,1805.7 559.286,1805.7 562.519,1805.7 565.753,1805.7 568.986,1805.7 572.219,1805.7 575.453,1805.7 578.686,1805.7 
  581.919,1805.7 585.153,1805.7 588.386,1805.7 591.619,1805.7 594.853,1805.7 598.086,1805.7 601.319,1805.7 604.553,1805.7 607.786,1805.7 611.019,1805.7 
  614.253,1805.7 617.486,1805.7 620.719,1805.7 623.953,1805.7 627.186,1805.7 630.419,1805.7 633.653,1805.7 636.886,1805.7 640.119,1805.7 643.353,1805.7 
  646.586,1805.7 649.819,1805.7 653.053,1805.7 656.286,1805.7 659.519,1805.7 662.753,1805.7 665.986,1805.7 669.219,1805.7 672.453,1805.7 675.686,1805.7 
  678.919,1805.7 682.153,1805.7 685.386,1805.7 688.619,1805.7 691.853,1805.7 695.086,1805.7 698.319,1805.7 701.553,1805.7 704.786,1805.7 708.019,1805.7 
  711.253,1805.7 714.486,1805.7 717.719,1805.7 720.953,1805.7 724.186,1805.7 727.419,1805.7 730.653,1805.7 733.886,1805.7 737.119,1805.7 740.353,1805.7 
  743.586,1805.7 746.819,1805.7 750.053,1805.7 753.286,1805.7 756.519,1805.7 759.753,1805.7 762.986,1805.7 766.219,1805.7 769.453,1805.7 772.686,1805.7 
  775.919,1805.7 779.153,1805.7 782.386,1805.7 785.619,1805.7 788.853,1805.7 792.086,1805.7 795.319,1805.7 798.553,1805.7 801.786,1805.7 805.019,1805.7 
  808.253,1805.7 811.486,1805.7 814.719,1805.7 817.953,1805.7 821.186,1805.7 824.419,1805.7 827.653,1805.7 830.886,1805.7 834.119,1805.7 837.353,1805.7 
  840.586,1805.7 843.819,1805.7 847.053,1805.7 850.286,1805.7 853.519,1805.7 856.753,1805.7 859.986,1805.7 863.219,1805.7 866.453,1805.7 869.686,1805.7 
  872.919,1805.7 876.153,1805.7 879.386,1805.7 882.619,1805.7 885.853,1805.7 889.086,1805.7 892.319,1805.7 895.553,1805.7 898.786,1805.7 902.019,1805.7 
  905.253,1805.7 908.486,1805.7 911.719,1805.7 914.953,1805.7 918.186,1805.7 921.419,1805.7 924.653,1805.7 927.886,1805.7 931.119,1805.7 934.353,1805.7 
  937.586,1805.7 940.819,1805.7 944.053,1805.7 947.286,1805.7 950.519,1805.7 953.753,1805.7 956.986,1805.7 960.219,1805.7 963.453,1805.7 966.686,1805.7 
  969.919,1805.7 973.153,1805.7 976.386,1805.7 979.619,1805.7 982.853,1805.7 986.086,1805.7 989.319,1805.7 992.553,1805.7 995.786,1805.7 999.019,1805.7 
  1002.25,1805.7 1005.49,1805.7 1008.72,1805.7 1011.95,1805.7 1015.19,1805.7 1018.42,1805.7 1021.65,1805.7 1024.89,1805.7 1028.12,1805.7 1031.35,1805.7 
  1034.59,1805.7 1037.82,1805.7 1041.05,1805.7 1044.29,1805.7 1047.52,1805.7 1050.75,1805.7 1053.99,1805.7 1057.22,1805.7 1060.45,1805.7 1063.69,1805.7 
  1066.92,1805.7 1070.15,1805.7 1073.39,1805.7 1076.62,1805.7 1079.85,1805.7 1083.09,1805.7 1086.32,1805.7 1089.55,1805.7 1092.79,1805.7 1096.02,1805.7 
  1099.25,1805.7 1102.49,1805.7 1105.72,1805.7 1108.95,1805.7 1112.19,1805.7 1115.42,1805.7 1118.65,1805.7 1121.89,1805.7 1125.12,1805.7 1128.35,1805.7 
  1131.59,1805.7 1134.82,1805.7 1138.05,1805.7 1141.29,1805.7 1144.52,1805.7 1147.75,1805.7 1150.99,1805.7 1154.22,1805.7 1157.45,1805.7 1160.69,1805.7 
  1163.92,1805.7 1167.15,1805.7 1170.39,1805.7 1173.62,1805.7 1176.85,1805.7 1180.09,1805.7 1183.32,1805.7 1186.55,1805.7 1189.79,1805.7 1193.02,1805.7 
  1196.25,1805.7 1199.49,1805.7 1202.72,1805.7 1205.95,1805.7 1209.19,1805.7 1212.42,1805.7 1215.65,1805.7 1218.89,1805.7 1222.12,1805.7 1225.35,1805.7 
  1228.59,1805.7 1231.82,1805.7 1235.05,1805.7 1238.29,1805.7 1241.52,1805.7 1244.75,1805.7 1247.99,1805.7 1251.22,1805.7 1254.45,1805.7 1257.69,1805.7 
  1260.92,1805.7 1264.15,1805.7 1267.39,1805.7 1270.62,1805.7 1273.85,1805.7 1277.09,1805.7 1280.32,1805.7 1283.55,1805.7 1286.79,1805.7 1290.02,1805.7 
  1293.25,1805.7 1296.49,1805.7 1299.72,1805.7 1302.95,1805.7 1306.19,1805.7 1309.42,1805.7 1312.65,1805.7 1315.89,1805.7 1319.12,1805.7 1322.35,1805.7 
  1325.59,1805.7 1328.82,1805.7 1332.05,1805.7 1335.29,1805.7 1338.52,1805.7 1341.75,1805.7 1344.99,1805.7 1348.22,1805.7 1351.45,1805.7 1354.69,1805.7 
  1357.92,1805.7 1361.15,1805.7 1364.39,1805.7 1367.62,1805.7 1370.85,1805.7 1374.09,1805.7 1377.32,1805.7 1380.55,1805.7 1383.79,1805.7 1387.02,1805.7 
  1390.25,1805.7 1393.49,1805.7 1396.72,1805.7 1399.95,1805.7 1403.19,1805.7 1406.42,1805.7 1409.65,1805.7 1412.89,1805.7 1416.12,1805.7 1419.35,1805.7 
  1422.59,1805.7 1425.82,1805.7 1429.05,1805.7 1432.29,1805.7 1435.52,1805.7 1438.75,1805.7 1441.99,1805.7 1445.22,1805.7 1448.45,1805.7 1451.69,1805.7 
  1454.92,1805.7 1458.15,1805.7 1461.39,1805.7 1464.62,1805.7 1467.85,1805.7 1471.09,1805.7 1474.32,1805.7 1477.55,1805.7 1480.79,1805.7 1484.02,1805.7 
  1487.25,1805.7 1490.49,1805.7 1493.72,1805.7 1496.95,1805.7 1500.19,1805.7 1503.42,1805.7 1506.65,1805.7 1509.89,1805.7 1513.12,1805.7 1516.35,1805.7 
  1519.59,1805.7 1522.82,1805.7 1526.05,1805.7 1529.29,1805.7 1532.52,1805.7 1535.75,1805.7 1538.99,1805.7 1542.22,1805.7 1545.45,1805.7 1548.69,1805.7 
  1551.92,1805.7 1555.15,1805.7 1558.39,1805.7 1561.62,1805.7 1564.85,1805.7 1568.09,1805.7 1571.32,1805.7 1574.55,1805.7 1577.79,1805.7 1581.02,1805.7 
  1584.25,1805.7 1587.49,1805.7 1590.72,1805.7 1593.95,1805.7 1597.19,1805.7 1600.42,1805.7 1603.65,1805.7 1606.89,1805.7 1610.12,1805.7 1613.35,1805.7 
  1616.59,1805.7 1619.82,1805.7 1623.05,1805.7 1626.29,1805.7 1629.52,1805.7 1632.75,1805.7 1635.99,1805.7 1639.22,1805.7 1642.45,1805.7 1645.69,1805.7 
  1648.92,1805.7 1652.15,1805.7 1655.39,1805.7 1658.62,1805.7 1661.85,1805.7 1665.09,1805.7 1668.32,1805.7 1671.55,1805.7 1674.79,1805.7 1678.02,1805.7 
  1681.25,1805.7 1684.49,1805.7 1687.72,1805.7 1690.95,1805.7 1694.19,1805.7 1697.42,1805.7 1700.65,1805.7 1703.89,1805.7 1707.12,1805.7 1710.35,1805.7 
  1713.59,1805.7 1716.82,1805.7 1720.05,1805.7 1723.29,1805.7 1726.52,1805.7 1729.75,1805.7 1732.99,1805.7 1736.22,1805.7 1739.45,1805.7 1742.69,1805.7 
  1745.92,1805.7 1749.15,1805.7 1752.39,1805.7 1755.62,1805.7 1758.85,1805.7 1762.09,1805.7 1765.32,1805.7 1768.55,1805.7 1771.79,1805.7 1775.02,1805.7 
  1778.25,1805.7 1781.49,1805.7 1784.72,1805.7 1787.95,1805.7 1791.19,1805.7 1794.42,1805.7 1797.65,1805.7 1800.89,1805.7 1804.12,1805.7 1807.35,1805.7 
  1810.59,1805.7 1813.82,1805.7 1817.05,1805.7 1820.29,1805.7 1823.52,1805.7 1826.75,1805.7 1829.99,1805.7 1833.22,1805.7 1836.45,1805.7 1839.69,1805.7 
  1842.92,1805.7 1846.15,1805.7 1849.39,1805.7 1852.62,1805.7 1855.85,1805.7 1859.09,1805.7 1862.32,1805.7 1865.55,1805.7 1868.79,1805.7 1872.02,1805.7 
  1875.25,1805.7 1878.49,1805.7 1881.72,1805.7 1884.95,1805.7 1888.19,1805.7 1891.42,1805.7 1894.65,1805.7 1897.89,1805.7 1901.12,1805.7 1904.35,1805.7 
  
  "/>
<path clip-path="url(#clip6400)" d="
M2242.52 1825.62 L3952.76 1825.62 L3952.76 1121.68 L2242.52 1121.68  Z
  " fill="#ffffff" fill-rule="evenodd" fill-opacity="1"/>
<defs>
  <clipPath id="clip6405">
    <rect x="2242" y="1121" width="1711" height="705"/>
  </clipPath>
</defs>
<polyline clip-path="url(#clip6405)" style="stroke:#000000; stroke-width:2; stroke-opacity:0.1; fill:none" points="
  2290.92,1825.62 2290.92,1121.68 
  "/>
<polyline clip-path="url(#clip6405)" style="stroke:#000000; stroke-width:2; stroke-opacity:0.1; fill:none" points="
  2694.28,1825.62 2694.28,1121.68 
  "/>
<polyline clip-path="url(#clip6405)" style="stroke:#000000; stroke-width:2; stroke-opacity:0.1; fill:none" points="
  3097.64,1825.62 3097.64,1121.68 
  "/>
<polyline clip-path="url(#clip6405)" style="stroke:#000000; stroke-width:2; stroke-opacity:0.1; fill:none" points="
  3500.99,1825.62 3500.99,1121.68 
  "/>
<polyline clip-path="url(#clip6405)" style="stroke:#000000; stroke-width:2; stroke-opacity:0.1; fill:none" points="
  3904.35,1825.62 3904.35,1121.68 
  "/>
<polyline clip-path="url(#clip6405)" style="stroke:#000000; stroke-width:2; stroke-opacity:0.1; fill:none" points="
  2242.52,1805.7 3952.76,1805.7 
  "/>
<polyline clip-path="url(#clip6405)" style="stroke:#000000; stroke-width:2; stroke-opacity:0.1; fill:none" points="
  2242.52,1639.67 3952.76,1639.67 
  "/>
<polyline clip-path="url(#clip6405)" style="stroke:#000000; stroke-width:2; stroke-opacity:0.1; fill:none" points="
  2242.52,1473.65 3952.76,1473.65 
  "/>
<polyline clip-path="url(#clip6405)" style="stroke:#000000; stroke-width:2; stroke-opacity:0.1; fill:none" points="
  2242.52,1307.62 3952.76,1307.62 
  "/>
<polyline clip-path="url(#clip6405)" style="stroke:#000000; stroke-width:2; stroke-opacity:0.1; fill:none" points="
  2242.52,1141.6 3952.76,1141.6 
  "/>
<polyline clip-path="url(#clip6400)" style="stroke:#000000; stroke-width:4; stroke-opacity:1; fill:none" points="
  2242.52,1825.62 3952.76,1825.62 
  "/>
<polyline clip-path="url(#clip6400)" style="stroke:#000000; stroke-width:4; stroke-opacity:1; fill:none" points="
  2242.52,1825.62 2242.52,1121.68 
  "/>
<polyline clip-path="url(#clip6400)" style="stroke:#000000; stroke-width:4; stroke-opacity:1; fill:none" points="
  2290.92,1825.62 2290.92,1817.17 
  "/>
<polyline clip-path="url(#clip6400)" style="stroke:#000000; stroke-width:4; stroke-opacity:1; fill:none" points="
  2694.28,1825.62 2694.28,1817.17 
  "/>
<polyline clip-path="url(#clip6400)" style="stroke:#000000; stroke-width:4; stroke-opacity:1; fill:none" points="
  3097.64,1825.62 3097.64,1817.17 
  "/>
<polyline clip-path="url(#clip6400)" style="stroke:#000000; stroke-width:4; stroke-opacity:1; fill:none" points="
  3500.99,1825.62 3500.99,1817.17 
  "/>
<polyline clip-path="url(#clip6400)" style="stroke:#000000; stroke-width:4; stroke-opacity:1; fill:none" points="
  3904.35,1825.62 3904.35,1817.17 
  "/>
<polyline clip-path="url(#clip6400)" style="stroke:#000000; stroke-width:4; stroke-opacity:1; fill:none" points="
  2242.52,1805.7 2263.04,1805.7 
  "/>
<polyline clip-path="url(#clip6400)" style="stroke:#000000; stroke-width:4; stroke-opacity:1; fill:none" points="
  2242.52,1639.67 2263.04,1639.67 
  "/>
<polyline clip-path="url(#clip6400)" style="stroke:#000000; stroke-width:4; stroke-opacity:1; fill:none" points="
  2242.52,1473.65 2263.04,1473.65 
  "/>
<polyline clip-path="url(#clip6400)" style="stroke:#000000; stroke-width:4; stroke-opacity:1; fill:none" points="
  2242.52,1307.62 2263.04,1307.62 
  "/>
<polyline clip-path="url(#clip6400)" style="stroke:#000000; stroke-width:4; stroke-opacity:1; fill:none" points="
  2242.52,1141.6 2263.04,1141.6 
  "/>
<g clip-path="url(#clip6400)">
<text style="fill:#000000; fill-opacity:1; font-family:Arial,Helvetica Neue,Helvetica,sans-serif; font-size:48px; text-anchor:middle;" transform="rotate(0, 2290.92, 1887.62)" x="2290.92" y="1887.62">0.00</text>
</g>
<g clip-path="url(#clip6400)">
<text style="fill:#000000; fill-opacity:1; font-family:Arial,Helvetica Neue,Helvetica,sans-serif; font-size:48px; text-anchor:middle;" transform="rotate(0, 2694.28, 1887.62)" x="2694.28" y="1887.62">0.25</text>
</g>
<g clip-path="url(#clip6400)">
<text style="fill:#000000; fill-opacity:1; font-family:Arial,Helvetica Neue,Helvetica,sans-serif; font-size:48px; text-anchor:middle;" transform="rotate(0, 3097.64, 1887.62)" x="3097.64" y="1887.62">0.50</text>
</g>
<g clip-path="url(#clip6400)">
<text style="fill:#000000; fill-opacity:1; font-family:Arial,Helvetica Neue,Helvetica,sans-serif; font-size:48px; text-anchor:middle;" transform="rotate(0, 3500.99, 1887.62)" x="3500.99" y="1887.62">0.75</text>
</g>
<g clip-path="url(#clip6400)">
<text style="fill:#000000; fill-opacity:1; font-family:Arial,Helvetica Neue,Helvetica,sans-serif; font-size:48px; text-anchor:middle;" transform="rotate(0, 3904.35, 1887.62)" x="3904.35" y="1887.62">1.00</text>
</g>
<g clip-path="url(#clip6400)">
<text style="fill:#000000; fill-opacity:1; font-family:Arial,Helvetica Neue,Helvetica,sans-serif; font-size:48px; text-anchor:end;" transform="rotate(0, 2202.52, 1823.2)" x="2202.52" y="1823.2">0.00</text>
</g>
<g clip-path="url(#clip6400)">
<text style="fill:#000000; fill-opacity:1; font-family:Arial,Helvetica Neue,Helvetica,sans-serif; font-size:48px; text-anchor:end;" transform="rotate(0, 2202.52, 1657.17)" x="2202.52" y="1657.17">0.25</text>
</g>
<g clip-path="url(#clip6400)">
<text style="fill:#000000; fill-opacity:1; font-family:Arial,Helvetica Neue,Helvetica,sans-serif; font-size:48px; text-anchor:end;" transform="rotate(0, 2202.52, 1491.15)" x="2202.52" y="1491.15">0.50</text>
</g>
<g clip-path="url(#clip6400)">
<text style="fill:#000000; fill-opacity:1; font-family:Arial,Helvetica Neue,Helvetica,sans-serif; font-size:48px; text-anchor:end;" transform="rotate(0, 2202.52, 1325.12)" x="2202.52" y="1325.12">0.75</text>
</g>
<g clip-path="url(#clip6400)">
<text style="fill:#000000; fill-opacity:1; font-family:Arial,Helvetica Neue,Helvetica,sans-serif; font-size:48px; text-anchor:end;" transform="rotate(0, 2202.52, 1159.1)" x="2202.52" y="1159.1">1.00</text>
</g>
<g clip-path="url(#clip6400)">
<text style="fill:#000000; fill-opacity:1; font-family:Arial,Helvetica Neue,Helvetica,sans-serif; font-size:82px; text-anchor:middle;" transform="rotate(0, 3097.64, 1072)" x="3097.64" y="1072">parameters[2]</text>
</g>
<g clip-path="url(#clip6400)">
<text style="fill:#000000; fill-opacity:1; font-family:Arial,Helvetica Neue,Helvetica,sans-serif; font-size:66px; text-anchor:middle;" transform="rotate(0, 3097.64, 1975.48)" x="3097.64" y="1975.48">Sample value</text>
</g>
<g clip-path="url(#clip6400)">
<text style="fill:#000000; fill-opacity:1; font-family:Arial,Helvetica Neue,Helvetica,sans-serif; font-size:66px; text-anchor:middle;" transform="rotate(-90, 2057.29, 1473.65)" x="2057.29" y="1473.65">Density</text>
</g>
<path clip-path="url(#clip6400)" d="
M242.516 2825.62 L1952.76 2825.62 L1952.76 2121.68 L242.516 2121.68  Z
  " fill="#ffffff" fill-rule="evenodd" fill-opacity="1"/>
<defs>
  <clipPath id="clip6406">
    <rect x="242" y="2121" width="1711" height="705"/>
  </clipPath>
</defs>
<polyline clip-path="url(#clip6406)" style="stroke:#000000; stroke-width:2; stroke-opacity:0.1; fill:none" points="
  287.686,2825.62 287.686,2121.68 
  "/>
<polyline clip-path="url(#clip6406)" style="stroke:#000000; stroke-width:2; stroke-opacity:0.1; fill:none" points="
  611.019,2825.62 611.019,2121.68 
  "/>
<polyline clip-path="url(#clip6406)" style="stroke:#000000; stroke-width:2; stroke-opacity:0.1; fill:none" points="
  934.353,2825.62 934.353,2121.68 
  "/>
<polyline clip-path="url(#clip6406)" style="stroke:#000000; stroke-width:2; stroke-opacity:0.1; fill:none" points="
  1257.69,2825.62 1257.69,2121.68 
  "/>
<polyline clip-path="url(#clip6406)" style="stroke:#000000; stroke-width:2; stroke-opacity:0.1; fill:none" points="
  1581.02,2825.62 1581.02,2121.68 
  "/>
<polyline clip-path="url(#clip6406)" style="stroke:#000000; stroke-width:2; stroke-opacity:0.1; fill:none" points="
  1904.35,2825.62 1904.35,2121.68 
  "/>
<polyline clip-path="url(#clip6406)" style="stroke:#000000; stroke-width:2; stroke-opacity:0.1; fill:none" points="
  242.516,2525.1 1952.76,2525.1 
  "/>
<polyline clip-path="url(#clip6406)" style="stroke:#000000; stroke-width:2; stroke-opacity:0.1; fill:none" points="
  242.516,2525.1 1952.76,2525.1 
  "/>
<polyline clip-path="url(#clip6406)" style="stroke:#000000; stroke-width:2; stroke-opacity:0.1; fill:none" points="
  242.516,2458.69 1952.76,2458.69 
  "/>
<polyline clip-path="url(#clip6406)" style="stroke:#000000; stroke-width:2; stroke-opacity:0.1; fill:none" points="
  242.516,2392.28 1952.76,2392.28 
  "/>
<polyline clip-path="url(#clip6406)" style="stroke:#000000; stroke-width:2; stroke-opacity:0.1; fill:none" points="
  242.516,2325.87 1952.76,2325.87 
  "/>
<polyline clip-path="url(#clip6406)" style="stroke:#000000; stroke-width:2; stroke-opacity:0.1; fill:none" points="
  242.516,2259.46 1952.76,2259.46 
  "/>
<polyline clip-path="url(#clip6406)" style="stroke:#000000; stroke-width:2; stroke-opacity:0.1; fill:none" points="
  242.516,2193.05 1952.76,2193.05 
  "/>
<polyline clip-path="url(#clip6406)" style="stroke:#000000; stroke-width:2; stroke-opacity:0.1; fill:none" points="
  242.516,2126.64 1952.76,2126.64 
  "/>
<polyline clip-path="url(#clip6400)" style="stroke:#000000; stroke-width:4; stroke-opacity:1; fill:none" points="
  242.516,2825.62 1952.76,2825.62 
  "/>
<polyline clip-path="url(#clip6400)" style="stroke:#000000; stroke-width:4; stroke-opacity:1; fill:none" points="
  242.516,2825.62 242.516,2121.68 
  "/>
<polyline clip-path="url(#clip6400)" style="stroke:#000000; stroke-width:4; stroke-opacity:1; fill:none" points="
  287.686,2825.62 287.686,2817.17 
  "/>
<polyline clip-path="url(#clip6400)" style="stroke:#000000; stroke-width:4; stroke-opacity:1; fill:none" points="
  611.019,2825.62 611.019,2817.17 
  "/>
<polyline clip-path="url(#clip6400)" style="stroke:#000000; stroke-width:4; stroke-opacity:1; fill:none" points="
  934.353,2825.62 934.353,2817.17 
  "/>
<polyline clip-path="url(#clip6400)" style="stroke:#000000; stroke-width:4; stroke-opacity:1; fill:none" points="
  1257.69,2825.62 1257.69,2817.17 
  "/>
<polyline clip-path="url(#clip6400)" style="stroke:#000000; stroke-width:4; stroke-opacity:1; fill:none" points="
  1581.02,2825.62 1581.02,2817.17 
  "/>
<polyline clip-path="url(#clip6400)" style="stroke:#000000; stroke-width:4; stroke-opacity:1; fill:none" points="
  1904.35,2825.62 1904.35,2817.17 
  "/>
<polyline clip-path="url(#clip6400)" style="stroke:#000000; stroke-width:4; stroke-opacity:1; fill:none" points="
  242.516,2525.1 263.039,2525.1 
  "/>
<polyline clip-path="url(#clip6400)" style="stroke:#000000; stroke-width:4; stroke-opacity:1; fill:none" points="
  242.516,2525.1 263.039,2525.1 
  "/>
<polyline clip-path="url(#clip6400)" style="stroke:#000000; stroke-width:4; stroke-opacity:1; fill:none" points="
  242.516,2458.69 263.039,2458.69 
  "/>
<polyline clip-path="url(#clip6400)" style="stroke:#000000; stroke-width:4; stroke-opacity:1; fill:none" points="
  242.516,2392.28 263.039,2392.28 
  "/>
<polyline clip-path="url(#clip6400)" style="stroke:#000000; stroke-width:4; stroke-opacity:1; fill:none" points="
  242.516,2325.87 263.039,2325.87 
  "/>
<polyline clip-path="url(#clip6400)" style="stroke:#000000; stroke-width:4; stroke-opacity:1; fill:none" points="
  242.516,2259.46 263.039,2259.46 
  "/>
<polyline clip-path="url(#clip6400)" style="stroke:#000000; stroke-width:4; stroke-opacity:1; fill:none" points="
  242.516,2193.05 263.039,2193.05 
  "/>
<polyline clip-path="url(#clip6400)" style="stroke:#000000; stroke-width:4; stroke-opacity:1; fill:none" points="
  242.516,2126.64 263.039,2126.64 
  "/>
<g clip-path="url(#clip6400)">
<text style="fill:#000000; fill-opacity:1; font-family:Arial,Helvetica Neue,Helvetica,sans-serif; font-size:48px; text-anchor:middle;" transform="rotate(0, 287.686, 2887.62)" x="287.686" y="2887.62">0</text>
</g>
<g clip-path="url(#clip6400)">
<text style="fill:#000000; fill-opacity:1; font-family:Arial,Helvetica Neue,Helvetica,sans-serif; font-size:48px; text-anchor:middle;" transform="rotate(0, 611.019, 2887.62)" x="611.019" y="2887.62">100</text>
</g>
<g clip-path="url(#clip6400)">
<text style="fill:#000000; fill-opacity:1; font-family:Arial,Helvetica Neue,Helvetica,sans-serif; font-size:48px; text-anchor:middle;" transform="rotate(0, 934.353, 2887.62)" x="934.353" y="2887.62">200</text>
</g>
<g clip-path="url(#clip6400)">
<text style="fill:#000000; fill-opacity:1; font-family:Arial,Helvetica Neue,Helvetica,sans-serif; font-size:48px; text-anchor:middle;" transform="rotate(0, 1257.69, 2887.62)" x="1257.69" y="2887.62">300</text>
</g>
<g clip-path="url(#clip6400)">
<text style="fill:#000000; fill-opacity:1; font-family:Arial,Helvetica Neue,Helvetica,sans-serif; font-size:48px; text-anchor:middle;" transform="rotate(0, 1581.02, 2887.62)" x="1581.02" y="2887.62">400</text>
</g>
<g clip-path="url(#clip6400)">
<text style="fill:#000000; fill-opacity:1; font-family:Arial,Helvetica Neue,Helvetica,sans-serif; font-size:48px; text-anchor:middle;" transform="rotate(0, 1904.35, 2887.62)" x="1904.35" y="2887.62">500</text>
</g>
<g clip-path="url(#clip6400)">
<text style="fill:#000000; fill-opacity:1; font-family:Arial,Helvetica Neue,Helvetica,sans-serif; font-size:48px; text-anchor:end;" transform="rotate(0, 202.516, 2542.6)" x="202.516" y="2542.6">2.0</text>
</g>
<g clip-path="url(#clip6400)">
<text style="fill:#000000; fill-opacity:1; font-family:Arial,Helvetica Neue,Helvetica,sans-serif; font-size:48px; text-anchor:end;" transform="rotate(0, 202.516, 2542.6)" x="202.516" y="2542.6">2.0</text>
</g>
<g clip-path="url(#clip6400)">
<text style="fill:#000000; fill-opacity:1; font-family:Arial,Helvetica Neue,Helvetica,sans-serif; font-size:48px; text-anchor:end;" transform="rotate(0, 202.516, 2476.19)" x="202.516" y="2476.19">2.1</text>
</g>
<g clip-path="url(#clip6400)">
<text style="fill:#000000; fill-opacity:1; font-family:Arial,Helvetica Neue,Helvetica,sans-serif; font-size:48px; text-anchor:end;" transform="rotate(0, 202.516, 2409.78)" x="202.516" y="2409.78">2.2</text>
</g>
<g clip-path="url(#clip6400)">
<text style="fill:#000000; fill-opacity:1; font-family:Arial,Helvetica Neue,Helvetica,sans-serif; font-size:48px; text-anchor:end;" transform="rotate(0, 202.516, 2343.37)" x="202.516" y="2343.37">2.3</text>
</g>
<g clip-path="url(#clip6400)">
<text style="fill:#000000; fill-opacity:1; font-family:Arial,Helvetica Neue,Helvetica,sans-serif; font-size:48px; text-anchor:end;" transform="rotate(0, 202.516, 2276.96)" x="202.516" y="2276.96">2.4</text>
</g>
<g clip-path="url(#clip6400)">
<text style="fill:#000000; fill-opacity:1; font-family:Arial,Helvetica Neue,Helvetica,sans-serif; font-size:48px; text-anchor:end;" transform="rotate(0, 202.516, 2210.55)" x="202.516" y="2210.55">2.5</text>
</g>
<g clip-path="url(#clip6400)">
<text style="fill:#000000; fill-opacity:1; font-family:Arial,Helvetica Neue,Helvetica,sans-serif; font-size:48px; text-anchor:end;" transform="rotate(0, 202.516, 2144.14)" x="202.516" y="2144.14">2.6</text>
</g>
<g clip-path="url(#clip6400)">
<text style="fill:#000000; fill-opacity:1; font-family:Arial,Helvetica Neue,Helvetica,sans-serif; font-size:82px; text-anchor:middle;" transform="rotate(0, 1097.64, 2072)" x="1097.64" y="2072">parameters[3]</text>
</g>
<g clip-path="url(#clip6400)">
<text style="fill:#000000; fill-opacity:1; font-family:Arial,Helvetica Neue,Helvetica,sans-serif; font-size:66px; text-anchor:middle;" transform="rotate(0, 1097.64, 2975.48)" x="1097.64" y="2975.48">Iteration</text>
</g>
<g clip-path="url(#clip6400)">
<text style="fill:#000000; fill-opacity:1; font-family:Arial,Helvetica Neue,Helvetica,sans-serif; font-size:66px; text-anchor:middle;" transform="rotate(-90, 84.0485, 2473.65)" x="84.0485" y="2473.65">Sample value</text>
</g>
<polyline clip-path="url(#clip6406)" style="stroke:#009af9; stroke-width:4; stroke-opacity:1; fill:none" points="
  290.919,2805.7 294.153,2805.7 297.386,2805.7 300.619,2805.7 303.853,2805.7 307.086,2805.7 310.319,2805.7 313.553,2805.7 316.786,2805.7 320.019,2805.7 
  323.253,2805.7 326.486,2805.7 329.719,2805.7 332.953,2805.7 336.186,2805.7 339.419,2805.7 342.653,2805.7 345.886,2805.7 349.119,2805.7 352.353,2805.7 
  355.586,2805.7 358.819,2805.7 362.053,2805.7 365.286,2805.7 368.519,2805.7 371.753,2805.7 374.986,2805.7 378.219,2805.7 381.453,2805.7 384.686,2805.7 
  387.919,2805.7 391.153,2805.7 394.386,2805.7 397.619,2805.7 400.853,2805.7 404.086,2805.7 407.319,2805.7 410.553,2805.7 413.786,2805.7 417.019,2805.7 
  420.253,2805.7 423.486,2805.7 426.719,2805.7 429.953,2805.7 433.186,2805.7 436.419,2805.7 439.653,2805.7 442.886,2805.7 446.119,2805.7 449.353,2805.7 
  452.586,2805.7 455.819,2805.7 459.053,2805.7 462.286,2805.7 465.519,2805.7 468.753,2805.7 471.986,2805.7 475.219,2805.7 478.453,2805.7 481.686,2805.7 
  484.919,2805.7 488.153,2805.7 491.386,2805.7 494.619,2805.7 497.853,2805.7 501.086,2805.7 504.319,2805.7 507.553,2805.7 510.786,2805.7 514.019,2805.7 
  517.253,2805.7 520.486,2805.7 523.719,2805.7 526.953,2805.7 530.186,2805.7 533.419,2805.7 536.653,2805.7 539.886,2805.7 543.119,2805.7 546.353,2805.7 
  549.586,2805.7 552.819,2805.7 556.053,2805.7 559.286,2805.7 562.519,2805.7 565.753,2805.7 568.986,2805.7 572.219,2805.7 575.453,2805.7 578.686,2805.7 
  581.919,2805.7 585.153,2805.7 588.386,2805.7 591.619,2805.7 594.853,2805.7 598.086,2805.7 601.319,2805.7 604.553,2805.7 607.786,2805.7 611.019,2805.7 
  614.253,2805.7 617.486,2805.7 620.719,2805.7 623.953,2805.7 627.186,2805.7 630.419,2805.7 633.653,2805.7 636.886,2805.7 640.119,2805.7 643.353,2805.7 
  646.586,2805.7 649.819,2805.7 653.053,2805.7 656.286,2805.7 659.519,2805.7 662.753,2805.7 665.986,2805.7 669.219,2805.7 672.453,2805.7 675.686,2805.7 
  678.919,2805.7 682.153,2805.7 685.386,2805.7 688.619,2805.7 691.853,2805.7 695.086,2805.7 698.319,2805.7 701.553,2805.7 704.786,2805.7 708.019,2805.7 
  711.253,2805.7 714.486,2805.7 717.719,2805.7 720.953,2805.7 724.186,2805.7 727.419,2805.7 730.653,2805.7 733.886,2805.7 737.119,2805.7 740.353,2805.7 
  743.586,2805.7 746.819,2805.7 750.053,2805.7 753.286,2805.7 756.519,2805.7 759.753,2805.7 762.986,2805.7 766.219,2805.7 769.453,2805.7 772.686,2805.7 
  775.919,2805.7 779.153,2805.7 782.386,2805.7 785.619,2805.7 788.853,2805.7 792.086,2805.7 795.319,2805.7 798.553,2805.7 801.786,2805.7 805.019,2805.7 
  808.253,2805.7 811.486,2805.7 814.719,2805.7 817.953,2805.7 821.186,2805.7 824.419,2805.7 827.653,2805.7 830.886,2805.7 834.119,2805.7 837.353,2805.7 
  840.586,2805.7 843.819,2805.7 847.053,2805.7 850.286,2805.7 853.519,2805.7 856.753,2805.7 859.986,2805.7 863.219,2805.7 866.453,2805.7 869.686,2805.7 
  872.919,2805.7 876.153,2805.7 879.386,2805.7 882.619,2805.7 885.853,2805.7 889.086,2805.7 892.319,2805.7 895.553,2805.7 898.786,2805.7 902.019,2805.7 
  905.253,2805.7 908.486,2805.7 911.719,2805.7 914.953,2805.7 918.186,2805.7 921.419,2805.7 924.653,2805.7 927.886,2805.7 931.119,2805.7 934.353,2805.7 
  937.586,2805.7 940.819,2805.7 944.053,2805.7 947.286,2805.7 950.519,2805.7 953.753,2805.7 956.986,2805.7 960.219,2805.7 963.453,2805.7 966.686,2805.7 
  969.919,2805.7 973.153,2805.7 976.386,2805.7 979.619,2805.7 982.853,2805.7 986.086,2805.7 989.319,2805.7 992.553,2805.7 995.786,2805.7 999.019,2805.7 
  1002.25,2805.7 1005.49,2805.7 1008.72,2805.7 1011.95,2805.7 1015.19,2805.7 1018.42,2805.7 1021.65,2805.7 1024.89,2805.7 1028.12,2805.7 1031.35,2805.7 
  1034.59,2805.7 1037.82,2805.7 1041.05,2805.7 1044.29,2805.7 1047.52,2805.7 1050.75,2805.7 1053.99,2805.7 1057.22,2805.7 1060.45,2805.7 1063.69,2805.7 
  1066.92,2805.7 1070.15,2805.7 1073.39,2805.7 1076.62,2805.7 1079.85,2805.7 1083.09,2805.7 1086.32,2805.7 1089.55,2805.7 1092.79,2805.7 1096.02,2805.7 
  1099.25,2805.7 1102.49,2805.7 1105.72,2805.7 1108.95,2805.7 1112.19,2805.7 1115.42,2805.7 1118.65,2805.7 1121.89,2805.7 1125.12,2805.7 1128.35,2805.7 
  1131.59,2805.7 1134.82,2805.7 1138.05,2805.7 1141.29,2805.7 1144.52,2805.7 1147.75,2805.7 1150.99,2805.7 1154.22,2805.7 1157.45,2805.7 1160.69,2805.7 
  1163.92,2805.7 1167.15,2805.7 1170.39,2805.7 1173.62,2805.7 1176.85,2805.7 1180.09,2805.7 1183.32,2805.7 1186.55,2805.7 1189.79,2805.7 1193.02,2805.7 
  1196.25,2805.7 1199.49,2805.7 1202.72,2805.7 1205.95,2805.7 1209.19,2805.7 1212.42,2805.7 1215.65,2805.7 1218.89,2805.7 1222.12,2805.7 1225.35,2805.7 
  1228.59,2805.7 1231.82,2805.7 1235.05,2805.7 1238.29,2805.7 1241.52,2805.7 1244.75,2805.7 1247.99,2805.7 1251.22,2805.7 1254.45,2805.7 1257.69,2805.7 
  1260.92,2805.7 1264.15,2805.7 1267.39,2805.7 1270.62,2805.7 1273.85,2805.7 1277.09,2805.7 1280.32,2805.7 1283.55,2805.7 1286.79,2805.7 1290.02,2805.7 
  1293.25,2805.7 1296.49,2805.7 1299.72,2805.7 1302.95,2805.7 1306.19,2805.7 1309.42,2805.7 1312.65,2805.7 1315.89,2805.7 1319.12,2805.7 1322.35,2805.7 
  1325.59,2805.7 1328.82,2805.7 1332.05,2805.7 1335.29,2805.7 1338.52,2805.7 1341.75,2805.7 1344.99,2805.7 1348.22,2805.7 1351.45,2805.7 1354.69,2805.7 
  1357.92,2805.7 1361.15,2805.7 1364.39,2805.7 1367.62,2805.7 1370.85,2805.7 1374.09,2805.7 1377.32,2805.7 1380.55,2805.7 1383.79,2805.7 1387.02,2805.7 
  1390.25,2805.7 1393.49,2805.7 1396.72,2805.7 1399.95,2805.7 1403.19,2805.7 1406.42,2805.7 1409.65,2805.7 1412.89,2805.7 1416.12,2805.7 1419.35,2805.7 
  1422.59,2805.7 1425.82,2805.7 1429.05,2805.7 1432.29,2805.7 1435.52,2805.7 1438.75,2805.7 1441.99,2805.7 1445.22,2805.7 1448.45,2805.7 1451.69,2805.7 
  1454.92,2805.7 1458.15,2805.7 1461.39,2805.7 1464.62,2805.7 1467.85,2805.7 1471.09,2805.7 1474.32,2805.7 1477.55,2805.7 1480.79,2805.7 1484.02,2805.7 
  1487.25,2805.7 1490.49,2805.7 1493.72,2805.7 1496.95,2805.7 1500.19,2805.7 1503.42,2805.7 1506.65,2805.7 1509.89,2805.7 1513.12,2805.7 1516.35,2805.7 
  1519.59,2805.7 1522.82,2805.7 1526.05,2805.7 1529.29,2805.7 1532.52,2805.7 1535.75,2805.7 1538.99,2805.7 1542.22,2805.7 1545.45,2805.7 1548.69,2805.7 
  1551.92,2805.7 1555.15,2805.7 1558.39,2805.7 1561.62,2805.7 1564.85,2805.7 1568.09,2805.7 1571.32,2805.7 1574.55,2805.7 1577.79,2805.7 1581.02,2805.7 
  1584.25,2805.7 1587.49,2805.7 1590.72,2805.7 1593.95,2805.7 1597.19,2805.7 1600.42,2805.7 1603.65,2805.7 1606.89,2805.7 1610.12,2805.7 1613.35,2805.7 
  1616.59,2805.7 1619.82,2805.7 1623.05,2805.7 1626.29,2805.7 1629.52,2805.7 1632.75,2805.7 1635.99,2805.7 1639.22,2805.7 1642.45,2805.7 1645.69,2805.7 
  1648.92,2805.7 1652.15,2805.7 1655.39,2805.7 1658.62,2805.7 1661.85,2805.7 1665.09,2805.7 1668.32,2805.7 1671.55,2805.7 1674.79,2805.7 1678.02,2805.7 
  1681.25,2805.7 1684.49,2805.7 1687.72,2805.7 1690.95,2805.7 1694.19,2805.7 1697.42,2805.7 1700.65,2805.7 1703.89,2805.7 1707.12,2805.7 1710.35,2805.7 
  1713.59,2805.7 1716.82,2805.7 1720.05,2805.7 1723.29,2805.7 1726.52,2805.7 1729.75,2805.7 1732.99,2805.7 1736.22,2805.7 1739.45,2805.7 1742.69,2805.7 
  1745.92,2805.7 1749.15,2805.7 1752.39,2805.7 1755.62,2805.7 1758.85,2805.7 1762.09,2805.7 1765.32,2805.7 1768.55,2805.7 1771.79,2805.7 1775.02,2805.7 
  1778.25,2805.7 1781.49,2805.7 1784.72,2805.7 1787.95,2805.7 1791.19,2805.7 1794.42,2805.7 1797.65,2805.7 1800.89,2805.7 1804.12,2805.7 1807.35,2805.7 
  1810.59,2805.7 1813.82,2805.7 1817.05,2805.7 1820.29,2805.7 1823.52,2805.7 1826.75,2805.7 1829.99,2805.7 1833.22,2805.7 1836.45,2805.7 1839.69,2805.7 
  1842.92,2805.7 1846.15,2805.7 1849.39,2805.7 1852.62,2805.7 1855.85,2805.7 1859.09,2805.7 1862.32,2805.7 1865.55,2805.7 1868.79,2805.7 1872.02,2805.7 
  1875.25,2805.7 1878.49,2805.7 1881.72,2805.7 1884.95,2805.7 1888.19,2805.7 1891.42,2805.7 1894.65,2805.7 1897.89,2805.7 1901.12,2805.7 1904.35,2805.7 
  
  "/>
<path clip-path="url(#clip6400)" d="
M2242.52 2825.62 L3952.76 2825.62 L3952.76 2121.68 L2242.52 2121.68  Z
  " fill="#ffffff" fill-rule="evenodd" fill-opacity="1"/>
<defs>
  <clipPath id="clip6407">
    <rect x="2242" y="2121" width="1711" height="705"/>
  </clipPath>
</defs>
<polyline clip-path="url(#clip6407)" style="stroke:#000000; stroke-width:2; stroke-opacity:0.1; fill:none" points="
  2972.63,2825.62 2972.63,2121.68 
  "/>
<polyline clip-path="url(#clip6407)" style="stroke:#000000; stroke-width:2; stroke-opacity:0.1; fill:none" points="
  2972.63,2825.62 2972.63,2121.68 
  "/>
<polyline clip-path="url(#clip6407)" style="stroke:#000000; stroke-width:2; stroke-opacity:0.1; fill:none" points="
  3133.98,2825.62 3133.98,2121.68 
  "/>
<polyline clip-path="url(#clip6407)" style="stroke:#000000; stroke-width:2; stroke-opacity:0.1; fill:none" points="
  3295.32,2825.62 3295.32,2121.68 
  "/>
<polyline clip-path="url(#clip6407)" style="stroke:#000000; stroke-width:2; stroke-opacity:0.1; fill:none" points="
  3456.66,2825.62 3456.66,2121.68 
  "/>
<polyline clip-path="url(#clip6407)" style="stroke:#000000; stroke-width:2; stroke-opacity:0.1; fill:none" points="
  3618.01,2825.62 3618.01,2121.68 
  "/>
<polyline clip-path="url(#clip6407)" style="stroke:#000000; stroke-width:2; stroke-opacity:0.1; fill:none" points="
  3779.35,2825.62 3779.35,2121.68 
  "/>
<polyline clip-path="url(#clip6407)" style="stroke:#000000; stroke-width:2; stroke-opacity:0.1; fill:none" points="
  3940.69,2825.62 3940.69,2121.68 
  "/>
<polyline clip-path="url(#clip6407)" style="stroke:#000000; stroke-width:2; stroke-opacity:0.1; fill:none" points="
  2242.52,2805.7 3952.76,2805.7 
  "/>
<polyline clip-path="url(#clip6407)" style="stroke:#000000; stroke-width:2; stroke-opacity:0.1; fill:none" points="
  2242.52,2639.67 3952.76,2639.67 
  "/>
<polyline clip-path="url(#clip6407)" style="stroke:#000000; stroke-width:2; stroke-opacity:0.1; fill:none" points="
  2242.52,2473.65 3952.76,2473.65 
  "/>
<polyline clip-path="url(#clip6407)" style="stroke:#000000; stroke-width:2; stroke-opacity:0.1; fill:none" points="
  2242.52,2307.62 3952.76,2307.62 
  "/>
<polyline clip-path="url(#clip6407)" style="stroke:#000000; stroke-width:2; stroke-opacity:0.1; fill:none" points="
  2242.52,2141.6 3952.76,2141.6 
  "/>
<polyline clip-path="url(#clip6400)" style="stroke:#000000; stroke-width:4; stroke-opacity:1; fill:none" points="
  2242.52,2825.62 3952.76,2825.62 
  "/>
<polyline clip-path="url(#clip6400)" style="stroke:#000000; stroke-width:4; stroke-opacity:1; fill:none" points="
  2242.52,2825.62 2242.52,2121.68 
  "/>
<polyline clip-path="url(#clip6400)" style="stroke:#000000; stroke-width:4; stroke-opacity:1; fill:none" points="
  2972.63,2825.62 2972.63,2817.17 
  "/>
<polyline clip-path="url(#clip6400)" style="stroke:#000000; stroke-width:4; stroke-opacity:1; fill:none" points="
  2972.63,2825.62 2972.63,2817.17 
  "/>
<polyline clip-path="url(#clip6400)" style="stroke:#000000; stroke-width:4; stroke-opacity:1; fill:none" points="
  3133.98,2825.62 3133.98,2817.17 
  "/>
<polyline clip-path="url(#clip6400)" style="stroke:#000000; stroke-width:4; stroke-opacity:1; fill:none" points="
  3295.32,2825.62 3295.32,2817.17 
  "/>
<polyline clip-path="url(#clip6400)" style="stroke:#000000; stroke-width:4; stroke-opacity:1; fill:none" points="
  3456.66,2825.62 3456.66,2817.17 
  "/>
<polyline clip-path="url(#clip6400)" style="stroke:#000000; stroke-width:4; stroke-opacity:1; fill:none" points="
  3618.01,2825.62 3618.01,2817.17 
  "/>
<polyline clip-path="url(#clip6400)" style="stroke:#000000; stroke-width:4; stroke-opacity:1; fill:none" points="
  3779.35,2825.62 3779.35,2817.17 
  "/>
<polyline clip-path="url(#clip6400)" style="stroke:#000000; stroke-width:4; stroke-opacity:1; fill:none" points="
  3940.69,2825.62 3940.69,2817.17 
  "/>
<polyline clip-path="url(#clip6400)" style="stroke:#000000; stroke-width:4; stroke-opacity:1; fill:none" points="
  2242.52,2805.7 2263.04,2805.7 
  "/>
<polyline clip-path="url(#clip6400)" style="stroke:#000000; stroke-width:4; stroke-opacity:1; fill:none" points="
  2242.52,2639.67 2263.04,2639.67 
  "/>
<polyline clip-path="url(#clip6400)" style="stroke:#000000; stroke-width:4; stroke-opacity:1; fill:none" points="
  2242.52,2473.65 2263.04,2473.65 
  "/>
<polyline clip-path="url(#clip6400)" style="stroke:#000000; stroke-width:4; stroke-opacity:1; fill:none" points="
  2242.52,2307.62 2263.04,2307.62 
  "/>
<polyline clip-path="url(#clip6400)" style="stroke:#000000; stroke-width:4; stroke-opacity:1; fill:none" points="
  2242.52,2141.6 2263.04,2141.6 
  "/>
<g clip-path="url(#clip6400)">
<text style="fill:#000000; fill-opacity:1; font-family:Arial,Helvetica Neue,Helvetica,sans-serif; font-size:48px; text-anchor:middle;" transform="rotate(0, 2972.63, 2887.62)" x="2972.63" y="2887.62">2.0</text>
</g>
<g clip-path="url(#clip6400)">
<text style="fill:#000000; fill-opacity:1; font-family:Arial,Helvetica Neue,Helvetica,sans-serif; font-size:48px; text-anchor:middle;" transform="rotate(0, 2972.63, 2887.62)" x="2972.63" y="2887.62">2.0</text>
</g>
<g clip-path="url(#clip6400)">
<text style="fill:#000000; fill-opacity:1; font-family:Arial,Helvetica Neue,Helvetica,sans-serif; font-size:48px; text-anchor:middle;" transform="rotate(0, 3133.98, 2887.62)" x="3133.98" y="2887.62">2.1</text>
</g>
<g clip-path="url(#clip6400)">
<text style="fill:#000000; fill-opacity:1; font-family:Arial,Helvetica Neue,Helvetica,sans-serif; font-size:48px; text-anchor:middle;" transform="rotate(0, 3295.32, 2887.62)" x="3295.32" y="2887.62">2.2</text>
</g>
<g clip-path="url(#clip6400)">
<text style="fill:#000000; fill-opacity:1; font-family:Arial,Helvetica Neue,Helvetica,sans-serif; font-size:48px; text-anchor:middle;" transform="rotate(0, 3456.66, 2887.62)" x="3456.66" y="2887.62">2.3</text>
</g>
<g clip-path="url(#clip6400)">
<text style="fill:#000000; fill-opacity:1; font-family:Arial,Helvetica Neue,Helvetica,sans-serif; font-size:48px; text-anchor:middle;" transform="rotate(0, 3618.01, 2887.62)" x="3618.01" y="2887.62">2.4</text>
</g>
<g clip-path="url(#clip6400)">
<text style="fill:#000000; fill-opacity:1; font-family:Arial,Helvetica Neue,Helvetica,sans-serif; font-size:48px; text-anchor:middle;" transform="rotate(0, 3779.35, 2887.62)" x="3779.35" y="2887.62">2.5</text>
</g>
<g clip-path="url(#clip6400)">
<text style="fill:#000000; fill-opacity:1; font-family:Arial,Helvetica Neue,Helvetica,sans-serif; font-size:48px; text-anchor:middle;" transform="rotate(0, 3940.69, 2887.62)" x="3940.69" y="2887.62">2.6</text>
</g>
<g clip-path="url(#clip6400)">
<text style="fill:#000000; fill-opacity:1; font-family:Arial,Helvetica Neue,Helvetica,sans-serif; font-size:48px; text-anchor:end;" transform="rotate(0, 2202.52, 2823.2)" x="2202.52" y="2823.2">0.00</text>
</g>
<g clip-path="url(#clip6400)">
<text style="fill:#000000; fill-opacity:1; font-family:Arial,Helvetica Neue,Helvetica,sans-serif; font-size:48px; text-anchor:end;" transform="rotate(0, 2202.52, 2657.17)" x="2202.52" y="2657.17">0.25</text>
</g>
<g clip-path="url(#clip6400)">
<text style="fill:#000000; fill-opacity:1; font-family:Arial,Helvetica Neue,Helvetica,sans-serif; font-size:48px; text-anchor:end;" transform="rotate(0, 2202.52, 2491.15)" x="2202.52" y="2491.15">0.50</text>
</g>
<g clip-path="url(#clip6400)">
<text style="fill:#000000; fill-opacity:1; font-family:Arial,Helvetica Neue,Helvetica,sans-serif; font-size:48px; text-anchor:end;" transform="rotate(0, 2202.52, 2325.12)" x="2202.52" y="2325.12">0.75</text>
</g>
<g clip-path="url(#clip6400)">
<text style="fill:#000000; fill-opacity:1; font-family:Arial,Helvetica Neue,Helvetica,sans-serif; font-size:48px; text-anchor:end;" transform="rotate(0, 2202.52, 2159.1)" x="2202.52" y="2159.1">1.00</text>
</g>
<g clip-path="url(#clip6400)">
<text style="fill:#000000; fill-opacity:1; font-family:Arial,Helvetica Neue,Helvetica,sans-serif; font-size:82px; text-anchor:middle;" transform="rotate(0, 3097.64, 2072)" x="3097.64" y="2072">parameters[3]</text>
</g>
<g clip-path="url(#clip6400)">
<text style="fill:#000000; fill-opacity:1; font-family:Arial,Helvetica Neue,Helvetica,sans-serif; font-size:66px; text-anchor:middle;" transform="rotate(0, 3097.64, 2975.48)" x="3097.64" y="2975.48">Sample value</text>
</g>
<g clip-path="url(#clip6400)">
<text style="fill:#000000; fill-opacity:1; font-family:Arial,Helvetica Neue,Helvetica,sans-serif; font-size:66px; text-anchor:middle;" transform="rotate(-90, 2057.29, 2473.65)" x="2057.29" y="2473.65">Density</text>
</g>
<polyline clip-path="url(#clip6407)" style="stroke:#009af9; stroke-width:4; stroke-opacity:1; fill:none" points="
  2290.92,2805.7 2290.92,2805.7 
  
  
  
  "/>
</svg>
