<?xml version="1.0" encoding="utf-8"?>
<svg xmlns="http://www.w3.org/2000/svg" xmlns:xlink="http://www.w3.org/1999/xlink" width="600" height="400" viewBox="0 0 2400 1600">
<defs>
  <clipPath id="clip3000">
    <rect x="0" y="0" width="2400" height="1600"/>
  </clipPath>
</defs>
<path clip-path="url(#clip3000)" d="
M0 1600 L2400 1600 L2400 0 L0 0  Z
  " fill="#ffffff" fill-rule="evenodd" fill-opacity="1"/>
<defs>
  <clipPath id="clip3001">
    <rect x="480" y="0" width="1681" height="1600"/>
  </clipPath>
</defs>
<path clip-path="url(#clip3000)" d="
M167.279 1487.47 L2352.76 1487.47 L2352.76 47.2441 L167.279 47.2441  Z
  " fill="#ffffff" fill-rule="evenodd" fill-opacity="1"/>
<defs>
  <clipPath id="clip3002">
    <rect x="167" y="47" width="2186" height="1441"/>
  </clipPath>
</defs>
<polyline clip-path="url(#clip3002)" style="stroke:#000000; stroke-width:2; stroke-opacity:0.1; fill:none" points="
  229.132,1487.47 229.132,47.2441 
  "/>
<polyline clip-path="url(#clip3002)" style="stroke:#000000; stroke-width:2; stroke-opacity:0.1; fill:none" points="
  658.668,1487.47 658.668,47.2441 
  "/>
<polyline clip-path="url(#clip3002)" style="stroke:#000000; stroke-width:2; stroke-opacity:0.1; fill:none" points="
  1088.2,1487.47 1088.2,47.2441 
  "/>
<polyline clip-path="url(#clip3002)" style="stroke:#000000; stroke-width:2; stroke-opacity:0.1; fill:none" points="
  1517.74,1487.47 1517.74,47.2441 
  "/>
<polyline clip-path="url(#clip3002)" style="stroke:#000000; stroke-width:2; stroke-opacity:0.1; fill:none" points="
  1947.27,1487.47 1947.27,47.2441 
  "/>
<polyline clip-path="url(#clip3002)" style="stroke:#000000; stroke-width:2; stroke-opacity:0.1; fill:none" points="
  167.279,1446.71 2352.76,1446.71 
  "/>
<polyline clip-path="url(#clip3002)" style="stroke:#000000; stroke-width:2; stroke-opacity:0.1; fill:none" points="
  167.279,1240.85 2352.76,1240.85 
  "/>
<polyline clip-path="url(#clip3002)" style="stroke:#000000; stroke-width:2; stroke-opacity:0.1; fill:none" points="
  167.279,1034.98 2352.76,1034.98 
  "/>
<polyline clip-path="url(#clip3002)" style="stroke:#000000; stroke-width:2; stroke-opacity:0.1; fill:none" points="
  167.279,829.119 2352.76,829.119 
  "/>
<polyline clip-path="url(#clip3002)" style="stroke:#000000; stroke-width:2; stroke-opacity:0.1; fill:none" points="
  167.279,623.254 2352.76,623.254 
  "/>
<polyline clip-path="url(#clip3002)" style="stroke:#000000; stroke-width:2; stroke-opacity:0.1; fill:none" points="
  167.279,417.389 2352.76,417.389 
  "/>
<polyline clip-path="url(#clip3002)" style="stroke:#000000; stroke-width:2; stroke-opacity:0.1; fill:none" points="
  167.279,417.389 2352.76,417.389 
  "/>
<polyline clip-path="url(#clip3000)" style="stroke:#000000; stroke-width:4; stroke-opacity:1; fill:none" points="
  167.279,1487.47 2352.76,1487.47 
  "/>
<polyline clip-path="url(#clip3000)" style="stroke:#000000; stroke-width:4; stroke-opacity:1; fill:none" points="
  167.279,1487.47 167.279,47.2441 
  "/>
<polyline clip-path="url(#clip3000)" style="stroke:#000000; stroke-width:4; stroke-opacity:1; fill:none" points="
  229.132,1487.47 229.132,1470.19 
  "/>
<polyline clip-path="url(#clip3000)" style="stroke:#000000; stroke-width:4; stroke-opacity:1; fill:none" points="
  658.668,1487.47 658.668,1470.19 
  "/>
<polyline clip-path="url(#clip3000)" style="stroke:#000000; stroke-width:4; stroke-opacity:1; fill:none" points="
  1088.2,1487.47 1088.2,1470.19 
  "/>
<polyline clip-path="url(#clip3000)" style="stroke:#000000; stroke-width:4; stroke-opacity:1; fill:none" points="
  1517.74,1487.47 1517.74,1470.19 
  "/>
<polyline clip-path="url(#clip3000)" style="stroke:#000000; stroke-width:4; stroke-opacity:1; fill:none" points="
  1947.27,1487.47 1947.27,1470.19 
  "/>
<polyline clip-path="url(#clip3000)" style="stroke:#000000; stroke-width:4; stroke-opacity:1; fill:none" points="
  167.279,1446.71 193.505,1446.71 
  "/>
<polyline clip-path="url(#clip3000)" style="stroke:#000000; stroke-width:4; stroke-opacity:1; fill:none" points="
  167.279,1240.85 193.505,1240.85 
  "/>
<polyline clip-path="url(#clip3000)" style="stroke:#000000; stroke-width:4; stroke-opacity:1; fill:none" points="
  167.279,1034.98 193.505,1034.98 
  "/>
<polyline clip-path="url(#clip3000)" style="stroke:#000000; stroke-width:4; stroke-opacity:1; fill:none" points="
  167.279,829.119 193.505,829.119 
  "/>
<polyline clip-path="url(#clip3000)" style="stroke:#000000; stroke-width:4; stroke-opacity:1; fill:none" points="
  167.279,623.254 193.505,623.254 
  "/>
<polyline clip-path="url(#clip3000)" style="stroke:#000000; stroke-width:4; stroke-opacity:1; fill:none" points="
  167.279,417.389 193.505,417.389 
  "/>
<polyline clip-path="url(#clip3000)" style="stroke:#000000; stroke-width:4; stroke-opacity:1; fill:none" points="
  167.279,417.389 193.505,417.389 
  "/>
<g clip-path="url(#clip3000)">
<text style="fill:#000000; fill-opacity:1; font-family:Arial,Helvetica Neue,Helvetica,sans-serif; font-size:48px; text-anchor:middle;" transform="rotate(0, 229.132, 1541.47)" x="229.132" y="1541.47">0</text>
</g>
<g clip-path="url(#clip3000)">
<text style="fill:#000000; fill-opacity:1; font-family:Arial,Helvetica Neue,Helvetica,sans-serif; font-size:48px; text-anchor:middle;" transform="rotate(0, 658.668, 1541.47)" x="658.668" y="1541.47">5</text>
</g>
<g clip-path="url(#clip3000)">
<text style="fill:#000000; fill-opacity:1; font-family:Arial,Helvetica Neue,Helvetica,sans-serif; font-size:48px; text-anchor:middle;" transform="rotate(0, 1088.2, 1541.47)" x="1088.2" y="1541.47">10</text>
</g>
<g clip-path="url(#clip3000)">
<text style="fill:#000000; fill-opacity:1; font-family:Arial,Helvetica Neue,Helvetica,sans-serif; font-size:48px; text-anchor:middle;" transform="rotate(0, 1517.74, 1541.47)" x="1517.74" y="1541.47">15</text>
</g>
<g clip-path="url(#clip3000)">
<text style="fill:#000000; fill-opacity:1; font-family:Arial,Helvetica Neue,Helvetica,sans-serif; font-size:48px; text-anchor:middle;" transform="rotate(0, 1947.27, 1541.47)" x="1947.27" y="1541.47">20</text>
</g>
<g clip-path="url(#clip3000)">
<text style="fill:#000000; fill-opacity:1; font-family:Arial,Helvetica Neue,Helvetica,sans-serif; font-size:48px; text-anchor:end;" transform="rotate(0, 143.279, 1464.21)" x="143.279" y="1464.21">0</text>
</g>
<g clip-path="url(#clip3000)">
<text style="fill:#000000; fill-opacity:1; font-family:Arial,Helvetica Neue,Helvetica,sans-serif; font-size:48px; text-anchor:end;" transform="rotate(0, 143.279, 1258.35)" x="143.279" y="1258.35">20</text>
</g>
<g clip-path="url(#clip3000)">
<text style="fill:#000000; fill-opacity:1; font-family:Arial,Helvetica Neue,Helvetica,sans-serif; font-size:48px; text-anchor:end;" transform="rotate(0, 143.279, 1052.48)" x="143.279" y="1052.48">40</text>
</g>
<g clip-path="url(#clip3000)">
<text style="fill:#000000; fill-opacity:1; font-family:Arial,Helvetica Neue,Helvetica,sans-serif; font-size:48px; text-anchor:end;" transform="rotate(0, 143.279, 846.619)" x="143.279" y="846.619">60</text>
</g>
<g clip-path="url(#clip3000)">
<text style="fill:#000000; fill-opacity:1; font-family:Arial,Helvetica Neue,Helvetica,sans-serif; font-size:48px; text-anchor:end;" transform="rotate(0, 143.279, 640.754)" x="143.279" y="640.754">80</text>
</g>
<g clip-path="url(#clip3000)">
<text style="fill:#000000; fill-opacity:1; font-family:Arial,Helvetica Neue,Helvetica,sans-serif; font-size:48px; text-anchor:end;" transform="rotate(0, 143.279, 434.889)" x="143.279" y="434.889">100</text>
</g>
<g clip-path="url(#clip3000)">
<text style="fill:#000000; fill-opacity:1; font-family:Arial,Helvetica Neue,Helvetica,sans-serif; font-size:48px; text-anchor:end;" transform="rotate(0, 143.279, 434.889)" x="143.279" y="434.889">100</text>
</g>
<polyline clip-path="url(#clip3002)" style="stroke:#ff0000; stroke-width:4; stroke-opacity:1; fill:none" points="
  229.132,1446.71 237.723,1400.39 246.314,1354.07 254.904,1307.75 263.495,1261.43 272.086,1215.12 280.677,1168.8 289.267,1122.48 297.858,1076.16 306.449,1029.84 
  315.039,983.517 323.63,937.198 332.221,890.878 340.811,844.558 349.402,798.239 357.993,751.919 366.584,705.599 375.174,659.28 383.765,612.96 392.356,566.641 
  400.946,520.321 409.537,474.001 418.128,427.682 426.719,381.362 435.309,335.042 443.9,288.723 452.491,242.403 461.081,196.084 469.672,154.617 478.263,172.827 
  486.854,190.781 495.444,208.481 504.035,225.932 512.626,243.137 521.216,260.1 529.807,276.823 538.398,293.311 546.989,309.567 555.579,325.593 564.17,341.394 
  572.761,356.972 581.351,372.33 589.942,387.472 598.533,402.4 607.124,417.118 615.714,431.629 624.305,445.935 632.896,460.04 641.486,473.945 650.077,487.655 
  658.668,501.171 667.258,514.498 675.849,527.636 684.44,540.589 693.031,553.359 701.621,565.95 710.212,578.363 718.803,590.601 727.393,602.667 735.984,614.562 
  744.575,626.29 753.166,637.853 761.756,649.252 770.347,660.492 778.938,671.572 787.528,682.497 796.119,693.267 804.71,703.886 813.301,714.355 821.891,724.676 
  830.482,734.852 839.073,744.885 847.663,754.776 856.254,764.528 864.845,774.143 873.436,783.621 882.026,792.967 890.617,802.18 899.208,811.264 907.798,820.22 
  916.389,829.049 924.98,837.754 933.571,846.337 942.161,854.798 950.752,863.14 959.343,871.365 967.933,879.474 976.524,887.468 985.115,895.35 993.705,903.12 
  1002.3,910.782 1010.89,918.335 1019.48,925.781 1028.07,933.123 1036.66,940.362 1045.25,947.498 1053.84,954.534 1062.43,961.47 1071.02,968.309 1079.61,975.051 
  1088.2,981.699 1096.79,988.252 1105.38,994.714 1113.98,1001.08 1122.57,1007.36 1131.16,1013.56 1139.75,1019.66 1148.34,1025.68 1156.93,1031.61 1165.52,1037.46 
  1174.11,1043.23 1182.7,1048.92 1191.29,1054.52 1199.88,1060.05 1208.47,1065.5 1217.06,1070.87 1225.65,1076.17 1234.25,1081.39 1242.84,1086.54 1251.43,1091.62 
  1260.02,1096.62 1268.61,1101.56 1277.2,1106.42 1285.79,1111.22 1294.38,1115.95 1302.97,1120.61 1311.56,1125.2 1320.15,1129.73 1328.74,1134.2 1337.33,1138.61 
  1345.92,1142.95 1354.52,1147.23 1363.11,1151.45 1371.7,1155.61 1380.29,1159.71 1388.88,1163.76 1397.47,1167.75 1406.06,1171.68 1414.65,1175.55 1423.24,1179.38 
  1431.83,1183.14 1440.42,1186.86 1449.01,1190.52 1457.6,1194.13 1466.19,1197.69 1474.79,1201.2 1483.38,1204.66 1491.97,1208.07 1500.56,1211.44 1509.15,1214.75 
  1517.74,1218.02 1526.33,1221.24 1534.92,1224.42 1543.51,1227.55 1552.1,1230.64 1560.69,1233.69 1569.28,1236.69 1577.87,1239.65 1586.46,1242.57 1595.06,1245.45 
  1603.65,1248.28 1612.24,1251.08 1620.83,1253.84 1629.42,1256.55 1638.01,1259.23 1646.6,1261.88 1655.19,1264.48 1663.78,1267.05 1672.37,1269.58 1680.96,1272.08 
  1689.55,1274.54 1698.14,1276.97 1706.73,1279.36 1715.33,1281.72 1723.92,1284.04 1732.51,1286.34 1741.1,1288.6 1749.69,1290.82 1758.28,1293.02 1766.87,1295.19 
  1775.46,1297.32 1784.05,1299.43 1792.64,1301.5 1801.23,1303.55 1809.82,1305.57 1818.41,1307.56 1827,1309.52 1835.6,1311.45 1844.19,1313.36 1852.78,1315.24 
  1861.37,1317.09 1869.96,1318.92 1878.55,1320.72 1887.14,1322.49 1895.73,1324.24 1904.32,1325.97 1912.91,1327.67 1921.5,1329.35 1930.09,1331 1938.68,1332.64 
  1947.27,1334.24 1955.87,1335.83 1964.46,1337.39 1973.05,1338.93 1981.64,1340.45 1990.23,1341.95 1998.82,1343.42 2007.41,1344.88 2016,1346.32 2024.59,1347.73 
  2033.18,1349.13 2041.77,1350.5 2050.36,1351.86 2058.95,1353.19 2067.54,1354.51 2076.14,1355.81 2084.73,1357.09 2093.32,1358.36 2101.91,1359.6 2110.5,1360.83 
  2119.09,1362.04 2127.68,1363.23 2136.27,1364.41 2144.86,1365.57 2153.45,1366.71 2162.04,1367.84 2170.63,1368.95 2179.22,1370.05 2187.81,1371.13 2196.4,1372.19 
  2205,1373.24 2213.59,1374.28 2222.18,1375.3 2230.77,1376.31 2239.36,1377.3 2247.95,1378.28 2256.54,1379.24 2265.13,1380.19 2273.72,1381.13 2282.31,1382.05 
  2290.9,1382.97 
  "/>
<circle clip-path="url(#clip3002)" cx="229.132" cy="1446.71" r="14" fill="#ff0000" fill-rule="evenodd" fill-opacity="1" stroke="#000000" stroke-opacity="1" stroke-width="3.2"/>
<circle clip-path="url(#clip3002)" cx="315.039" cy="1189.38" r="14" fill="#ff0000" fill-rule="evenodd" fill-opacity="1" stroke="#000000" stroke-opacity="1" stroke-width="3.2"/>
<circle clip-path="url(#clip3002)" cx="400.946" cy="417.389" r="14" fill="#ff0000" fill-rule="evenodd" fill-opacity="1" stroke="#000000" stroke-opacity="1" stroke-width="3.2"/>
<circle clip-path="url(#clip3002)" cx="486.854" cy="88.0053" r="14" fill="#ff0000" fill-rule="evenodd" fill-opacity="1" stroke="#000000" stroke-opacity="1" stroke-width="3.2"/>
<circle clip-path="url(#clip3002)" cx="572.761" cy="520.322" r="14" fill="#ff0000" fill-rule="evenodd" fill-opacity="1" stroke="#000000" stroke-opacity="1" stroke-width="3.2"/>
<circle clip-path="url(#clip3002)" cx="744.575" cy="602.668" r="14" fill="#ff0000" fill-rule="evenodd" fill-opacity="1" stroke="#000000" stroke-opacity="1" stroke-width="3.2"/>
<circle clip-path="url(#clip3002)" cx="916.389" cy="829.119" r="14" fill="#ff0000" fill-rule="evenodd" fill-opacity="1" stroke="#000000" stroke-opacity="1" stroke-width="3.2"/>
<circle clip-path="url(#clip3002)" cx="1088.2" cy="880.585" r="14" fill="#ff0000" fill-rule="evenodd" fill-opacity="1" stroke="#000000" stroke-opacity="1" stroke-width="3.2"/>
<circle clip-path="url(#clip3002)" cx="1260.02" cy="1117.33" r="14" fill="#ff0000" fill-rule="evenodd" fill-opacity="1" stroke="#000000" stroke-opacity="1" stroke-width="3.2"/>
<circle clip-path="url(#clip3002)" cx="1603.65" cy="1292.31" r="14" fill="#ff0000" fill-rule="evenodd" fill-opacity="1" stroke="#000000" stroke-opacity="1" stroke-width="3.2"/>
<circle clip-path="url(#clip3002)" cx="2290.9" cy="1405.54" r="14" fill="#ff0000" fill-rule="evenodd" fill-opacity="1" stroke="#000000" stroke-opacity="1" stroke-width="3.2"/>
<path clip-path="url(#clip3000)" d="
M1717.01 312.204 L2280.76 312.204 L2280.76 130.764 L1717.01 130.764  Z
  " fill="#ffffff" fill-rule="evenodd" fill-opacity="1"/>
<polyline clip-path="url(#clip3000)" style="stroke:#000000; stroke-width:4; stroke-opacity:1; fill:none" points="
  1717.01,312.204 2280.76,312.204 2280.76,130.764 1717.01,130.764 1717.01,312.204 
  "/>
<polyline clip-path="url(#clip3000)" style="stroke:#ff0000; stroke-width:4; stroke-opacity:1; fill:none" points="
  1741.01,191.244 1885.01,191.244 
  "/>
<g clip-path="url(#clip3000)">
<text style="fill:#000000; fill-opacity:1; font-family:Arial,Helvetica Neue,Helvetica,sans-serif; font-size:48px; text-anchor:start;" transform="rotate(0, 1909.01, 208.744)" x="1909.01" y="208.744">A200 predicted</text>
</g>
<circle clip-path="url(#clip3000)" cx="1825.01" cy="251.724" r="21" fill="#ff0000" fill-rule="evenodd" fill-opacity="1" stroke="#000000" stroke-opacity="1" stroke-width="3.2"/>
<g clip-path="url(#clip3000)">
<text style="fill:#000000; fill-opacity:1; font-family:Arial,Helvetica Neue,Helvetica,sans-serif; font-size:48px; text-anchor:start;" transform="rotate(0, 1909.01, 269.224)" x="1909.01" y="269.224">A200 actual</text>
</g>
</svg>
