<?xml version="1.0" encoding="utf-8"?>
<svg xmlns="http://www.w3.org/2000/svg" xmlns:xlink="http://www.w3.org/1999/xlink" width="800" height="600" viewBox="0 0 3200 2400">
<defs>
  <clipPath id="clip2700">
    <rect x="0" y="0" width="3200" height="2400"/>
  </clipPath>
</defs>
<path clip-path="url(#clip2700)" d="
M0 2400 L3200 2400 L3200 0 L0 0  Z
  " fill="#ffffff" fill-rule="evenodd" fill-opacity="1"/>
<defs>
  <clipPath id="clip2701">
    <rect x="640" y="0" width="2241" height="2241"/>
  </clipPath>
</defs>
<path clip-path="url(#clip2700)" d="
M442.75 2207.66 L3152.76 2207.66 L3152.76 47.2441 L442.75 47.2441  Z
  " fill="#ffffff" fill-rule="evenodd" fill-opacity="1"/>
<defs>
  <clipPath id="clip2702">
    <rect x="442" y="47" width="2711" height="2161"/>
  </clipPath>
</defs>
<polyline clip-path="url(#clip2702)" style="stroke:#000000; stroke-width:2; stroke-opacity:0.1; fill:none" points="
  463.888,2207.66 463.888,47.2441 
  "/>
<polyline clip-path="url(#clip2702)" style="stroke:#000000; stroke-width:2; stroke-opacity:0.1; fill:none" points="
  1121.6,2207.66 1121.6,47.2441 
  "/>
<polyline clip-path="url(#clip2702)" style="stroke:#000000; stroke-width:2; stroke-opacity:0.1; fill:none" points="
  1779.31,2207.66 1779.31,47.2441 
  "/>
<polyline clip-path="url(#clip2702)" style="stroke:#000000; stroke-width:2; stroke-opacity:0.1; fill:none" points="
  2437.02,2207.66 2437.02,47.2441 
  "/>
<polyline clip-path="url(#clip2702)" style="stroke:#000000; stroke-width:2; stroke-opacity:0.1; fill:none" points="
  3094.74,2207.66 3094.74,47.2441 
  "/>
<polyline clip-path="url(#clip2702)" style="stroke:#000000; stroke-width:2; stroke-opacity:0.1; fill:none" points="
  442.75,2146.57 3152.76,2146.57 
  "/>
<polyline clip-path="url(#clip2702)" style="stroke:#000000; stroke-width:2; stroke-opacity:0.1; fill:none" points="
  442.75,1728.05 3152.76,1728.05 
  "/>
<polyline clip-path="url(#clip2702)" style="stroke:#000000; stroke-width:2; stroke-opacity:0.1; fill:none" points="
  442.75,1309.54 3152.76,1309.54 
  "/>
<polyline clip-path="url(#clip2702)" style="stroke:#000000; stroke-width:2; stroke-opacity:0.1; fill:none" points="
  442.75,891.023 3152.76,891.023 
  "/>
<polyline clip-path="url(#clip2702)" style="stroke:#000000; stroke-width:2; stroke-opacity:0.1; fill:none" points="
  442.75,472.509 3152.76,472.509 
  "/>
<polyline clip-path="url(#clip2702)" style="stroke:#000000; stroke-width:2; stroke-opacity:0.1; fill:none" points="
  442.75,53.9941 3152.76,53.9941 
  "/>
<polyline clip-path="url(#clip2700)" style="stroke:#000000; stroke-width:4; stroke-opacity:1; fill:none" points="
  442.75,2207.66 3152.76,2207.66 
  "/>
<polyline clip-path="url(#clip2700)" style="stroke:#000000; stroke-width:4; stroke-opacity:1; fill:none" points="
  442.75,2207.66 442.75,47.2441 
  "/>
<polyline clip-path="url(#clip2700)" style="stroke:#000000; stroke-width:4; stroke-opacity:1; fill:none" points="
  463.888,2207.66 463.888,2181.74 
  "/>
<polyline clip-path="url(#clip2700)" style="stroke:#000000; stroke-width:4; stroke-opacity:1; fill:none" points="
  1121.6,2207.66 1121.6,2181.74 
  "/>
<polyline clip-path="url(#clip2700)" style="stroke:#000000; stroke-width:4; stroke-opacity:1; fill:none" points="
  1779.31,2207.66 1779.31,2181.74 
  "/>
<polyline clip-path="url(#clip2700)" style="stroke:#000000; stroke-width:4; stroke-opacity:1; fill:none" points="
  2437.02,2207.66 2437.02,2181.74 
  "/>
<polyline clip-path="url(#clip2700)" style="stroke:#000000; stroke-width:4; stroke-opacity:1; fill:none" points="
  3094.74,2207.66 3094.74,2181.74 
  "/>
<polyline clip-path="url(#clip2700)" style="stroke:#000000; stroke-width:4; stroke-opacity:1; fill:none" points="
  442.75,2146.57 475.27,2146.57 
  "/>
<polyline clip-path="url(#clip2700)" style="stroke:#000000; stroke-width:4; stroke-opacity:1; fill:none" points="
  442.75,1728.05 475.27,1728.05 
  "/>
<polyline clip-path="url(#clip2700)" style="stroke:#000000; stroke-width:4; stroke-opacity:1; fill:none" points="
  442.75,1309.54 475.27,1309.54 
  "/>
<polyline clip-path="url(#clip2700)" style="stroke:#000000; stroke-width:4; stroke-opacity:1; fill:none" points="
  442.75,891.023 475.27,891.023 
  "/>
<polyline clip-path="url(#clip2700)" style="stroke:#000000; stroke-width:4; stroke-opacity:1; fill:none" points="
  442.75,472.509 475.27,472.509 
  "/>
<polyline clip-path="url(#clip2700)" style="stroke:#000000; stroke-width:4; stroke-opacity:1; fill:none" points="
  442.75,53.9941 475.27,53.9941 
  "/>
<g clip-path="url(#clip2700)">
<text style="fill:#000000; fill-opacity:1; font-family:Arial,Helvetica Neue,Helvetica,sans-serif; font-size:48px; text-anchor:start;" transform="rotate(0, 364.691, 2286.67)" x="364.691" y="2286.67">-</text>
</g>
<g clip-path="url(#clip2700)">
<text style="fill:#000000; fill-opacity:1; font-family:Arial,Helvetica Neue,Helvetica,sans-serif; font-size:48px; text-anchor:start;" transform="rotate(0, 392.801, 2286.67)" x="392.801" y="2286.67">5.0×10</text>
</g>
<g clip-path="url(#clip2700)">
<text style="fill:#000000; fill-opacity:1; font-family:Arial,Helvetica Neue,Helvetica,sans-serif; font-size:38px; text-anchor:start;" transform="rotate(0, 541.342, 2259.26)" x="541.342" y="2259.26">4</text>
</g>
<g clip-path="url(#clip2700)">
<text style="fill:#000000; fill-opacity:1; font-family:Arial,Helvetica Neue,Helvetica,sans-serif; font-size:48px; text-anchor:middle;" transform="rotate(0, 1121.6, 2265.66)" x="1121.6" y="2265.66">0</text>
</g>
<g clip-path="url(#clip2700)">
<text style="fill:#000000; fill-opacity:1; font-family:Arial,Helvetica Neue,Helvetica,sans-serif; font-size:48px; text-anchor:start;" transform="rotate(0, 1694.17, 2286.67)" x="1694.17" y="2286.67">5.0×10</text>
</g>
<g clip-path="url(#clip2700)">
<text style="fill:#000000; fill-opacity:1; font-family:Arial,Helvetica Neue,Helvetica,sans-serif; font-size:38px; text-anchor:start;" transform="rotate(0, 1842.71, 2259.26)" x="1842.71" y="2259.26">4</text>
</g>
<g clip-path="url(#clip2700)">
<text style="fill:#000000; fill-opacity:1; font-family:Arial,Helvetica Neue,Helvetica,sans-serif; font-size:48px; text-anchor:start;" transform="rotate(0, 2351.88, 2286.67)" x="2351.88" y="2286.67">1.0×10</text>
</g>
<g clip-path="url(#clip2700)">
<text style="fill:#000000; fill-opacity:1; font-family:Arial,Helvetica Neue,Helvetica,sans-serif; font-size:38px; text-anchor:start;" transform="rotate(0, 2500.42, 2259.26)" x="2500.42" y="2259.26">5</text>
</g>
<g clip-path="url(#clip2700)">
<text style="fill:#000000; fill-opacity:1; font-family:Arial,Helvetica Neue,Helvetica,sans-serif; font-size:48px; text-anchor:start;" transform="rotate(0, 3009.59, 2286.67)" x="3009.59" y="2286.67">1.5×10</text>
</g>
<g clip-path="url(#clip2700)">
<text style="fill:#000000; fill-opacity:1; font-family:Arial,Helvetica Neue,Helvetica,sans-serif; font-size:38px; text-anchor:start;" transform="rotate(0, 3158.13, 2259.26)" x="3158.13" y="2259.26">5</text>
</g>
<g clip-path="url(#clip2700)">
<text style="fill:#000000; fill-opacity:1; font-family:Arial,Helvetica Neue,Helvetica,sans-serif; font-size:48px; text-anchor:end;" transform="rotate(0, 410.75, 2164.07)" x="410.75" y="2164.07">0</text>
</g>
<g clip-path="url(#clip2700)">
<text style="fill:#000000; fill-opacity:1; font-family:Arial,Helvetica Neue,Helvetica,sans-serif; font-size:48px; text-anchor:start;" transform="rotate(0, 217.625, 1751.78)" x="217.625" y="1751.78">5.0×10</text>
</g>
<g clip-path="url(#clip2700)">
<text style="fill:#000000; fill-opacity:1; font-family:Arial,Helvetica Neue,Helvetica,sans-serif; font-size:38px; text-anchor:start;" transform="rotate(0, 366.166, 1724.37)" x="366.166" y="1724.37">-</text>
</g>
<g clip-path="url(#clip2700)">
<text style="fill:#000000; fill-opacity:1; font-family:Arial,Helvetica Neue,Helvetica,sans-serif; font-size:38px; text-anchor:start;" transform="rotate(0, 389.006, 1724.37)" x="389.006" y="1724.37">6</text>
</g>
<g clip-path="url(#clip2700)">
<text style="fill:#000000; fill-opacity:1; font-family:Arial,Helvetica Neue,Helvetica,sans-serif; font-size:48px; text-anchor:start;" transform="rotate(0, 217.625, 1333.26)" x="217.625" y="1333.26">1.0×10</text>
</g>
<g clip-path="url(#clip2700)">
<text style="fill:#000000; fill-opacity:1; font-family:Arial,Helvetica Neue,Helvetica,sans-serif; font-size:38px; text-anchor:start;" transform="rotate(0, 366.166, 1305.85)" x="366.166" y="1305.85">-</text>
</g>
<g clip-path="url(#clip2700)">
<text style="fill:#000000; fill-opacity:1; font-family:Arial,Helvetica Neue,Helvetica,sans-serif; font-size:38px; text-anchor:start;" transform="rotate(0, 389.006, 1305.85)" x="389.006" y="1305.85">5</text>
</g>
<g clip-path="url(#clip2700)">
<text style="fill:#000000; fill-opacity:1; font-family:Arial,Helvetica Neue,Helvetica,sans-serif; font-size:48px; text-anchor:start;" transform="rotate(0, 217.625, 914.751)" x="217.625" y="914.751">1.5×10</text>
</g>
<g clip-path="url(#clip2700)">
<text style="fill:#000000; fill-opacity:1; font-family:Arial,Helvetica Neue,Helvetica,sans-serif; font-size:38px; text-anchor:start;" transform="rotate(0, 366.166, 887.34)" x="366.166" y="887.34">-</text>
</g>
<g clip-path="url(#clip2700)">
<text style="fill:#000000; fill-opacity:1; font-family:Arial,Helvetica Neue,Helvetica,sans-serif; font-size:38px; text-anchor:start;" transform="rotate(0, 389.006, 887.34)" x="389.006" y="887.34">5</text>
</g>
<g clip-path="url(#clip2700)">
<text style="fill:#000000; fill-opacity:1; font-family:Arial,Helvetica Neue,Helvetica,sans-serif; font-size:48px; text-anchor:start;" transform="rotate(0, 217.625, 496.236)" x="217.625" y="496.236">2.0×10</text>
</g>
<g clip-path="url(#clip2700)">
<text style="fill:#000000; fill-opacity:1; font-family:Arial,Helvetica Neue,Helvetica,sans-serif; font-size:38px; text-anchor:start;" transform="rotate(0, 366.166, 468.826)" x="366.166" y="468.826">-</text>
</g>
<g clip-path="url(#clip2700)">
<text style="fill:#000000; fill-opacity:1; font-family:Arial,Helvetica Neue,Helvetica,sans-serif; font-size:38px; text-anchor:start;" transform="rotate(0, 389.006, 468.826)" x="389.006" y="468.826">5</text>
</g>
<g clip-path="url(#clip2700)">
<text style="fill:#000000; fill-opacity:1; font-family:Arial,Helvetica Neue,Helvetica,sans-serif; font-size:48px; text-anchor:start;" transform="rotate(0, 217.625, 77.7217)" x="217.625" y="77.7217">2.5×10</text>
</g>
<g clip-path="url(#clip2700)">
<text style="fill:#000000; fill-opacity:1; font-family:Arial,Helvetica Neue,Helvetica,sans-serif; font-size:38px; text-anchor:start;" transform="rotate(0, 366.166, 50.3113)" x="366.166" y="50.3113">-</text>
</g>
<g clip-path="url(#clip2700)">
<text style="fill:#000000; fill-opacity:1; font-family:Arial,Helvetica Neue,Helvetica,sans-serif; font-size:38px; text-anchor:start;" transform="rotate(0, 389.006, 50.3113)" x="389.006" y="50.3113">5</text>
</g>
<g clip-path="url(#clip2700)">
<text style="fill:#000000; fill-opacity:1; font-family:Arial,Helvetica Neue,Helvetica,sans-serif; font-size:66px; text-anchor:middle;" transform="rotate(0, 1797.75, 2349.53)" x="1797.75" y="2349.53">Total Claim Amount</text>
</g>
<g clip-path="url(#clip2700)">
<text style="fill:#000000; fill-opacity:1; font-family:Arial,Helvetica Neue,Helvetica,sans-serif; font-size:66px; text-anchor:middle;" transform="rotate(-90, 87.0496, 1127.45)" x="87.0496" y="1127.45">Density</text>
</g>
<polyline clip-path="url(#clip2702)" style="stroke:#009af9; stroke-width:4; stroke-opacity:1; fill:none" points="
  625.924,2146.46 637.614,2146.43 649.304,2146.38 660.993,2146.31 672.683,2146.2 684.373,2146.06 696.062,2145.87 707.752,2145.6 719.442,2145.24 731.131,2144.77 
  742.821,2144.14 754.511,2143.32 766.2,2142.26 777.89,2140.9 789.58,2139.15 801.269,2136.95 812.959,2134.19 824.649,2130.77 836.338,2126.55 848.028,2121.4 
  859.718,2115.16 871.407,2107.69 883.097,2098.81 894.787,2088.36 906.476,2076.17 918.166,2062.08 929.856,2045.96 941.545,2027.68 953.235,2007.17 964.925,1984.38 
  976.614,1959.33 988.304,1932.07 999.994,1902.73 1011.68,1871.52 1023.37,1838.7 1035.06,1804.62 1046.75,1769.69 1058.44,1734.39 1070.13,1699.23 1081.82,1664.8 
  1093.51,1631.68 1105.2,1600.49 1116.89,1571.81 1128.58,1546.21 1140.27,1524.2 1151.96,1506.23 1163.65,1492.63 1175.34,1483.65 1187.03,1479.44 1198.72,1479.99 
  1210.41,1485.19 1222.1,1494.8 1233.79,1508.46 1245.48,1525.7 1257.17,1545.98 1268.86,1568.65 1280.55,1593.03 1292.24,1618.41 1303.93,1644.06 1315.61,1669.27 
  1327.3,1693.35 1338.99,1715.67 1350.68,1735.67 1362.37,1752.86 1374.06,1766.84 1385.75,1777.31 1397.44,1784.07 1409.13,1786.99 1420.82,1786.08 1432.51,1781.39 
  1444.2,1773.09 1455.89,1761.38 1467.58,1746.54 1479.27,1728.91 1490.96,1708.82 1502.65,1686.66 1514.34,1662.82 1526.03,1637.66 1537.72,1611.57 1549.41,1584.89 
  1561.1,1557.93 1572.79,1530.97 1584.48,1504.26 1596.17,1478 1607.86,1452.32 1619.55,1427.34 1631.24,1403.13 1642.93,1379.7 1654.62,1357.04 1666.31,1335.1 
  1677.99,1313.81 1689.68,1293.07 1701.37,1272.78 1713.06,1252.79 1724.75,1233 1736.44,1213.28 1748.13,1193.5 1759.82,1173.55 1771.51,1153.35 1783.2,1132.82 
  1794.89,1111.9 1806.58,1090.57 1818.27,1068.83 1829.96,1046.71 1841.65,1024.26 1853.34,1001.59 1865.03,978.817 1876.72,956.097 1888.41,933.623 1900.1,911.614 
  1911.79,890.319 1923.48,870.015 1935.17,850.998 1946.86,833.583 1958.55,818.098 1970.24,804.875 1981.93,794.247 1993.62,786.537 2005.31,782.053 2017,781.076 
  2028.68,783.855 2040.37,790.597 2052.06,801.459 2063.75,816.546 2075.44,835.898 2087.13,859.493 2098.82,887.241 2110.51,918.982 2122.2,954.494 2133.89,993.488 
  2145.58,1035.62 2157.27,1080.49 2168.96,1127.66 2180.65,1176.67 2192.34,1227.02 2204.03,1278.2 2215.72,1329.73 2227.41,1381.11 2239.1,1431.89 2250.79,1481.64 
  2262.48,1529.97 2274.17,1576.55 2285.86,1621.11 2297.55,1663.42 2309.24,1703.32 2320.93,1740.7 2332.62,1775.52 2344.31,1807.77 2356,1837.51 2367.69,1864.82 
  2379.38,1889.82 2391.06,1912.65 2402.75,1933.46 2414.44,1952.43 2426.13,1969.72 2437.82,1985.51 2449.51,1999.94 2461.2,2013.18 2472.89,2025.34 2484.58,2036.55 
  2496.27,2046.92 2507.96,2056.51 2519.65,2065.41 2531.34,2073.67 2543.03,2081.32 2554.72,2088.42 2566.41,2094.97 2578.1,2101.01 2589.79,2106.56 2601.48,2111.62 
  2613.17,2116.22 2624.86,2120.38 2636.55,2124.11 2648.24,2127.43 2659.93,2130.37 2671.62,2132.95 2683.31,2135.2 2695,2137.14 2706.69,2138.81 2718.38,2140.23 
  2730.07,2141.43 2741.75,2142.43 2753.44,2143.26 2765.13,2143.95 2776.82,2144.5 2788.51,2144.96 2800.2,2145.32 2811.89,2145.61 2823.58,2145.83 2835.27,2146.01 
  2846.96,2146.15 2858.65,2146.25 2870.34,2146.33 2882.03,2146.39 2893.72,2146.44 2905.41,2146.47 2917.1,2146.48 2928.79,2146.49 2940.48,2146.49 2952.17,2146.48 
  
  "/>
<polyline clip-path="url(#clip2702)" style="stroke:#e26f46; stroke-width:4; stroke-opacity:1; fill:none" points="
  800.567,2146.46 809.869,2146.41 819.172,2146.34 828.474,2146.24 837.777,2146.08 847.079,2145.86 856.382,2145.53 865.684,2145.08 874.987,2144.44 884.289,2143.57 
  893.592,2142.37 902.895,2140.77 912.197,2138.64 921.5,2135.85 930.802,2132.22 940.105,2127.58 949.407,2121.69 958.71,2114.32 968.012,2105.22 977.315,2094.11 
  986.617,2080.73 995.92,2064.8 1005.22,2046.09 1014.53,2024.41 1023.83,1999.62 1033.13,1971.67 1042.43,1940.6 1051.74,1906.56 1061.04,1869.85 1070.34,1830.88 
  1079.64,1790.19 1088.95,1748.49 1098.25,1706.56 1107.55,1665.31 1116.85,1625.68 1126.16,1588.66 1135.46,1555.23 1144.76,1526.3 1154.06,1502.67 1163.37,1485.04 
  1172.67,1473.91 1181.97,1469.57 1191.27,1472.11 1200.58,1481.41 1209.88,1497.1 1219.18,1518.65 1228.48,1545.32 1237.79,1576.24 1247.09,1610.46 1256.39,1646.94 
  1265.69,1684.64 1275,1722.55 1284.3,1759.7 1293.6,1795.24 1302.9,1828.4 1312.21,1858.57 1321.51,1885.27 1330.81,1908.17 1340.11,1927.08 1349.42,1941.91 
  1358.72,1952.73 1368.02,1959.68 1377.32,1962.98 1386.63,1962.93 1395.93,1959.86 1405.23,1954.12 1414.53,1946.08 1423.84,1936.1 1433.14,1924.52 1442.44,1911.63 
  1451.74,1897.71 1461.05,1882.98 1470.35,1867.59 1479.65,1851.65 1488.95,1835.22 1498.26,1818.29 1507.56,1800.8 1516.86,1782.64 1526.16,1763.66 1535.47,1743.68 
  1544.77,1722.49 1554.07,1699.86 1563.37,1675.57 1572.68,1649.41 1581.98,1621.19 1591.28,1590.73 1600.59,1557.91 1609.89,1522.67 1619.19,1484.98 1628.49,1444.85 
  1637.8,1402.37 1647.1,1357.67 1656.4,1310.9 1665.7,1262.26 1675.01,1212 1684.31,1160.35 1693.61,1107.59 1702.91,1054.01 1712.22,999.9 1721.52,945.586 
  1730.82,891.401 1740.12,837.701 1749.43,784.864 1758.73,733.293 1768.03,683.41 1777.33,635.655 1786.64,590.475 1795.94,548.312 1805.24,509.586 1814.54,474.682 
  1823.85,443.931 1833.15,417.597 1842.45,395.86 1851.75,378.813 1861.06,366.454 1870.36,358.696 1879.66,355.37 1888.96,356.238 1898.27,361.015 1907.57,369.384 
  1916.87,381.017 1926.17,395.59 1935.48,412.801 1944.78,432.38 1954.08,454.091 1963.38,477.736 1972.69,503.149 1981.99,530.192 1991.29,558.744 2000.59,588.694 
  2009.9,619.929 2019.2,652.332 2028.5,685.779 2037.8,720.136 2047.11,755.265 2056.41,791.031 2065.71,827.306 2075.01,863.982 2084.32,900.974 2093.62,938.231 
  2102.92,975.731 2112.22,1013.49 2121.53,1051.55 2130.83,1089.98 2140.13,1128.85 2149.43,1168.24 2158.74,1208.23 2168.04,1248.85 2177.34,1290.13 2186.65,1332.04 
  2195.95,1374.5 2205.25,1417.41 2214.55,1460.6 2223.86,1503.87 2233.16,1547.01 2242.46,1589.76 2251.76,1631.85 2261.07,1673.04 2270.37,1713.06 2279.67,1751.69 
  2288.97,1788.71 2298.28,1823.95 2307.58,1857.26 2316.88,1888.53 2326.18,1917.69 2335.49,1944.7 2344.79,1969.55 2354.09,1992.25 2363.39,2012.86 2372.7,2031.43 
  2382,2048.06 2391.3,2062.85 2400.6,2075.9 2409.91,2087.33 2419.21,2097.28 2428.51,2105.86 2437.81,2113.2 2447.12,2119.44 2456.42,2124.69 2465.72,2129.07 
  2475.02,2132.69 2484.33,2135.66 2493.63,2138.07 2502.93,2140 2512.23,2141.54 2521.54,2142.76 2530.84,2143.71 2540.14,2144.44 2549.44,2145 2558.75,2145.43 
  2568.05,2145.74 2577.35,2145.98 2586.65,2146.15 2595.96,2146.27 2605.26,2146.36 2614.56,2146.42 2623.86,2146.46 2633.17,2146.48 2642.47,2146.49 2651.77,2146.48 
  
  "/>
<polyline clip-path="url(#clip2702)" style="stroke:#3da44d; stroke-width:4; stroke-opacity:1; fill:none" points="
  769.578,2146.44 780.901,2146.37 792.224,2146.26 803.548,2146.09 814.871,2145.84 826.194,2145.45 837.518,2144.89 848.841,2144.07 860.165,2142.91 871.488,2141.27 
  882.811,2139 894.135,2135.89 905.458,2131.69 916.782,2126.12 928.105,2118.83 939.428,2109.42 950.752,2097.46 962.075,2082.49 973.398,2064.04 984.722,2041.65 
  996.045,2014.9 1007.37,1983.47 1018.69,1947.14 1030.02,1905.85 1041.34,1859.75 1052.66,1809.23 1063.99,1754.92 1075.31,1697.7 1086.63,1638.74 1097.96,1579.42 
  1109.28,1521.29 1120.6,1466.06 1131.93,1415.43 1143.25,1371.1 1154.57,1334.59 1165.9,1307.22 1177.22,1289.97 1188.54,1283.45 1199.87,1287.86 1211.19,1302.98 
  1222.51,1328.15 1233.84,1362.34 1245.16,1404.21 1256.48,1452.17 1267.81,1504.5 1279.13,1559.44 1290.45,1615.26 1301.78,1670.35 1313.1,1723.31 1324.42,1772.98 
  1335.75,1818.46 1347.07,1859.14 1358.39,1894.68 1369.72,1924.96 1381.04,1950.1 1392.36,1970.36 1403.69,1986.14 1415.01,1997.9 1426.33,2006.12 1437.66,2011.29 
  1448.98,2013.84 1460.3,2014.16 1471.63,2012.55 1482.95,2009.22 1494.27,2004.31 1505.6,1997.83 1516.92,1989.77 1528.24,1979.99 1539.57,1968.33 1550.89,1954.56 
  1562.21,1938.43 1573.54,1919.65 1584.86,1897.94 1596.18,1872.99 1607.51,1844.52 1618.83,1812.3 1630.15,1776.08 1641.48,1735.72 1652.8,1691.1 1664.12,1642.2 
  1675.45,1589.08 1686.77,1531.91 1698.09,1470.98 1709.42,1406.69 1720.74,1339.55 1732.06,1270.23 1743.39,1199.48 1754.71,1128.15 1766.03,1057.15 1777.36,987.475 
  1788.68,920.082 1800,855.929 1811.33,795.909 1822.65,740.819 1833.98,691.338 1845.3,648 1856.62,611.18 1867.95,581.089 1879.27,557.775 1890.59,541.138 
  1901.92,530.94 1913.24,526.836 1924.56,528.393 1935.89,535.124 1947.21,546.515 1958.53,562.047 1969.86,581.221 1981.18,603.574 1992.5,628.692 2003.83,656.214 
  2015.15,685.829 2026.47,717.28 2037.8,750.344 2049.12,784.829 2060.44,820.559 2071.77,857.363 2083.09,895.064 2094.41,933.475 2105.74,972.396 2117.06,1011.61 
  2128.38,1050.91 2139.71,1090.06 2151.03,1128.86 2162.35,1167.12 2173.68,1204.69 2185,1241.44 2196.32,1277.3 2207.65,1312.25 2218.97,1346.28 2230.29,1379.47 
  2241.62,1411.88 2252.94,1443.62 2264.26,1474.8 2275.59,1505.52 2286.91,1535.87 2298.23,1565.93 2309.56,1595.73 2320.88,1625.29 2332.2,1654.59 2343.53,1683.57 
  2354.85,1712.15 2366.17,1740.25 2377.5,1767.73 2388.82,1794.49 2400.14,1820.38 2411.47,1845.28 2422.79,1869.07 2434.11,1891.64 2445.44,1912.89 2456.76,1932.73 
  2468.08,1951.1 2479.41,1967.95 2490.73,1983.26 2502.05,1997.03 2513.38,2009.3 2524.7,2020.13 2536.02,2029.59 2547.35,2037.79 2558.67,2044.89 2569.99,2051.02 
  2581.32,2056.36 2592.64,2061.08 2603.96,2065.35 2615.29,2069.33 2626.61,2073.16 2637.93,2076.96 2649.26,2080.82 2660.58,2084.79 2671.91,2088.92 2683.23,2093.19 
  2694.55,2097.58 2705.88,2102.05 2717.2,2106.52 2728.52,2110.94 2739.85,2115.24 2751.17,2119.34 2762.49,2123.19 2773.82,2126.74 2785.14,2129.96 2796.46,2132.84 
  2807.79,2135.36 2819.11,2137.54 2830.43,2139.39 2841.76,2140.94 2853.08,2142.21 2864.4,2143.23 2875.73,2144.05 2887.05,2144.7 2898.37,2145.19 2909.7,2145.57 
  2921.02,2145.86 2932.34,2146.06 2943.67,2146.22 2954.99,2146.32 2966.31,2146.4 2977.64,2146.45 2988.96,2146.48 3000.28,2146.49 3011.61,2146.49 3022.93,2146.47 
  
  "/>
<polyline clip-path="url(#clip2702)" style="stroke:#c271d2; stroke-width:4; stroke-opacity:1; fill:none" points="
  689.878,2146.45 701.869,2146.4 713.86,2146.33 725.851,2146.22 737.842,2146.05 749.832,2145.82 761.823,2145.5 773.814,2145.04 785.805,2144.41 797.796,2143.56 
  809.787,2142.4 821.778,2140.86 833.768,2138.81 845.759,2136.14 857.75,2132.7 869.741,2128.29 881.732,2122.71 893.723,2115.74 905.713,2107.13 917.704,2096.6 
  929.695,2083.89 941.686,2068.71 953.677,2050.8 965.668,2029.92 977.659,2005.89 989.649,1978.56 1001.64,1947.88 1013.63,1913.9 1025.62,1876.75 1037.61,1836.73 
  1049.6,1794.22 1061.59,1749.78 1073.59,1704.06 1085.58,1657.84 1097.57,1612 1109.56,1567.5 1121.55,1525.3 1133.54,1486.41 1145.53,1451.76 1157.52,1422.21 
  1169.51,1398.53 1181.5,1381.29 1193.49,1370.92 1205.48,1367.62 1217.48,1371.4 1229.47,1382.03 1241.46,1399.11 1253.45,1422.02 1265.44,1450.01 1277.43,1482.19 
  1289.42,1517.59 1301.41,1555.18 1313.4,1593.92 1325.39,1632.8 1337.38,1670.86 1349.38,1707.21 1361.37,1741.1 1373.36,1771.84 1385.35,1798.91 1397.34,1821.88 
  1409.33,1840.46 1421.32,1854.46 1433.31,1863.81 1445.3,1868.53 1457.29,1868.69 1469.28,1864.48 1481.27,1856.1 1493.27,1843.82 1505.26,1827.93 1517.25,1808.75 
  1529.24,1786.62 1541.23,1761.86 1553.22,1734.82 1565.21,1705.82 1577.2,1675.15 1589.19,1643.11 1601.18,1609.92 1613.17,1575.81 1625.16,1540.95 1637.16,1505.45 
  1649.15,1469.42 1661.14,1432.89 1673.13,1395.89 1685.12,1358.41 1697.11,1320.44 1709.1,1281.96 1721.09,1242.97 1733.08,1203.48 1745.07,1163.55 1757.06,1123.31 
  1769.05,1082.91 1781.05,1042.6 1793.04,1002.67 1805.03,963.496 1817.02,925.498 1829.01,889.147 1841,854.947 1852.99,823.417 1864.98,795.071 1876.97,770.398 
  1888.96,749.842 1900.95,733.784 1912.95,722.527 1924.94,716.279 1936.93,715.151 1948.92,719.15 1960.91,728.179 1972.9,742.042 1984.89,760.457 1996.88,783.063 
  2008.87,809.442 2020.86,839.126 2032.85,871.624 2044.84,906.433 2056.84,943.057 2068.83,981.017 2080.82,1019.87 2092.81,1059.21 2104.8,1098.69 2116.79,1137.99 
  2128.78,1176.89 2140.77,1215.17 2152.76,1252.69 2164.75,1289.36 2176.74,1325.12 2188.73,1359.93 2200.73,1393.81 2212.72,1426.76 2224.71,1458.83 2236.7,1490.04 
  2248.69,1520.44 2260.68,1550.06 2272.67,1578.95 2284.66,1607.12 2296.65,1634.58 2308.64,1661.36 2320.63,1687.44 2332.62,1712.82 2344.62,1737.48 2356.61,1761.41 
  2368.6,1784.59 2380.59,1806.98 2392.58,1828.57 2404.57,1849.32 2416.56,1869.22 2428.55,1888.23 2440.54,1906.35 2452.53,1923.54 2464.52,1939.8 2476.52,1955.13 
  2488.51,1969.53 2500.5,1983.01 2512.49,1995.59 2524.48,2007.3 2536.47,2018.18 2548.46,2028.27 2560.45,2037.62 2572.44,2046.29 2584.43,2054.34 2596.42,2061.83 
  2608.41,2068.81 2620.41,2075.34 2632.4,2081.47 2644.39,2087.23 2656.38,2092.65 2668.37,2097.77 2680.36,2102.59 2692.35,2107.13 2704.34,2111.4 2716.33,2115.4 
  2728.32,2119.12 2740.31,2122.56 2752.3,2125.72 2764.3,2128.61 2776.29,2131.22 2788.28,2133.56 2800.27,2135.63 2812.26,2137.46 2824.25,2139.04 2836.24,2140.41 
  2848.23,2141.58 2860.22,2142.56 2872.21,2143.38 2884.2,2144.05 2896.19,2144.6 2908.19,2145.05 2920.18,2145.4 2932.17,2145.69 2944.16,2145.91 2956.15,2146.07 
  2968.14,2146.2 2980.13,2146.3 2992.12,2146.37 3004.11,2146.43 3016.1,2146.46 3028.09,2146.49 3040.09,2146.5 3052.08,2146.51 3064.07,2146.5 3076.06,2146.48 
  
  "/>
<polyline clip-path="url(#clip2702)" style="stroke:#ac8d18; stroke-width:4; stroke-opacity:1; fill:none" points="
  791.365,2146.52 801.536,2146.5 811.707,2146.46 821.878,2146.41 832.049,2146.32 842.22,2146.18 852.391,2145.97 862.562,2145.66 872.733,2145.2 882.905,2144.54 
  893.076,2143.59 903.247,2142.26 913.418,2140.42 923.589,2137.91 933.76,2134.53 943.931,2130.04 954.102,2124.18 964.273,2116.64 974.444,2107.07 984.615,2095.12 
  994.786,2080.43 1004.96,2062.66 1015.13,2041.49 1025.3,2016.69 1035.47,1988.15 1045.64,1955.85 1055.81,1919.99 1065.98,1880.91 1076.15,1839.21 1086.33,1795.66 
  1096.5,1751.24 1106.67,1707.12 1116.84,1664.59 1127.01,1625 1137.18,1589.74 1147.35,1560.08 1157.52,1537.18 1167.69,1521.96 1177.87,1515.04 1188.04,1516.74 
  1198.21,1527 1208.38,1545.43 1218.55,1571.32 1228.72,1603.65 1238.89,1641.22 1249.06,1682.66 1259.23,1726.57 1269.4,1771.53 1279.58,1816.25 1289.75,1859.54 
  1299.92,1900.42 1310.09,1938.11 1320.26,1972.04 1330.43,2001.85 1340.6,2027.34 1350.77,2048.48 1360.94,2065.34 1371.12,2078.09 1381.29,2086.92 1391.46,2092.07 
  1401.63,2093.77 1411.8,2092.25 1421.97,2087.73 1432.14,2080.41 1442.31,2070.5 1452.48,2058.23 1462.65,2043.84 1472.83,2027.58 1483,2009.76 1493.17,1990.7 
  1503.34,1970.75 1513.51,1950.28 1523.68,1929.63 1533.85,1909.12 1544.02,1889.02 1554.19,1869.51 1564.37,1850.69 1574.54,1832.51 1584.71,1814.84 1594.88,1797.4 
  1605.05,1779.81 1615.22,1761.59 1625.39,1742.18 1635.56,1720.97 1645.73,1697.32 1655.9,1670.62 1666.08,1640.27 1676.25,1605.74 1686.42,1566.58 1696.59,1522.45 
  1706.76,1473.09 1716.93,1418.4 1727.1,1358.37 1737.27,1293.16 1747.44,1223.04 1757.62,1148.42 1767.79,1069.87 1777.96,988.091 1788.13,903.921 1798.3,818.336 
  1808.47,732.434 1818.64,647.42 1828.81,564.581 1838.98,485.255 1849.15,410.793 1859.33,342.512 1869.5,281.641 1879.67,229.268 1889.84,186.283 1900.01,153.326 
  1910.18,130.743 1920.35,118.558 1930.52,116.454 1940.69,123.785 1950.86,139.599 1961.04,162.691 1971.21,191.671 1981.38,225.052 1991.55,261.339 2001.72,299.128 
  2011.89,337.199 2022.06,374.587 2032.23,410.641 2042.4,445.052 2052.58,477.853 2062.75,509.391 2072.92,540.277 2083.09,571.304 2093.26,603.368 2103.43,637.37 
  2113.6,674.132 2123.77,714.319 2133.94,758.383 2144.11,806.53 2154.29,858.707 2164.46,914.618 2174.63,973.759 2184.8,1035.46 2194.97,1098.97 2205.14,1163.45 
  2215.31,1228.13 2225.48,1292.25 2235.65,1355.17 2245.83,1416.34 2256,1475.35 2266.17,1531.87 2276.34,1585.69 2286.51,1636.65 2296.68,1684.64 2306.85,1729.59 
  2317.02,1771.45 2327.19,1810.16 2337.36,1845.68 2347.54,1877.96 2357.71,1906.98 2367.88,1932.77 2378.05,1955.38 2388.22,1974.91 2398.39,1991.53 2408.56,2005.47 
  2418.73,2017.01 2428.9,2026.49 2439.08,2034.26 2449.25,2040.7 2459.42,2046.18 2469.59,2051.04 2479.76,2055.6 2489.93,2060.09 2500.1,2064.7 2510.27,2069.57 
  2520.44,2074.73 2530.61,2080.19 2540.79,2085.9 2550.96,2091.77 2561.13,2097.69 2571.3,2103.54 2581.47,2109.2 2591.64,2114.57 2601.81,2119.55 2611.98,2124.08 
  2622.15,2128.12 2632.33,2131.65 2642.5,2134.69 2652.67,2137.24 2662.84,2139.35 2673.01,2141.07 2683.18,2142.44 2693.35,2143.52 2703.52,2144.34 2713.69,2144.97 
  2723.86,2145.44 2734.04,2145.78 2744.21,2146.03 2754.38,2146.2 2764.55,2146.32 2774.72,2146.4 2784.89,2146.46 2795.06,2146.49 2805.23,2146.51 2815.4,2146.52 
  
  "/>
<polyline clip-path="url(#clip2702)" style="stroke:#00a9ad; stroke-width:4; stroke-opacity:1; fill:none" points="
  668.345,2146.46 680.191,2146.41 692.037,2146.35 703.884,2146.26 715.73,2146.12 727.576,2145.93 739.423,2145.67 751.269,2145.3 763.115,2144.8 774.962,2144.13 
  786.808,2143.24 798.654,2142.05 810.501,2140.51 822.347,2138.51 834.194,2135.94 846.04,2132.69 857.886,2128.61 869.733,2123.55 881.579,2117.33 893.425,2109.77 
  905.272,2100.69 917.118,2089.88 928.964,2077.17 940.811,2062.38 952.657,2045.38 964.503,2026.06 976.35,2004.36 988.196,1980.29 1000.04,1953.9 1011.89,1925.36 
  1023.74,1894.91 1035.58,1862.86 1047.43,1829.63 1059.27,1795.71 1071.12,1761.67 1082.97,1728.14 1094.81,1695.78 1106.66,1665.28 1118.51,1637.31 1130.35,1612.52 
  1142.2,1591.48 1154.05,1574.7 1165.89,1562.55 1177.74,1555.31 1189.58,1553.08 1201.43,1555.83 1213.28,1563.39 1225.12,1575.43 1236.97,1591.5 1248.82,1611.01 
  1260.66,1633.32 1272.51,1657.7 1284.35,1683.37 1296.2,1709.57 1308.05,1735.55 1319.89,1760.58 1331.74,1784.03 1343.59,1805.33 1355.43,1824.03 1367.28,1839.75 
  1379.13,1852.24 1390.97,1861.37 1402.82,1867.07 1414.66,1869.39 1426.51,1868.44 1438.36,1864.39 1450.2,1857.48 1462.05,1847.93 1473.9,1836 1485.74,1821.93 
  1497.59,1805.96 1509.44,1788.28 1521.28,1769.03 1533.13,1748.33 1544.97,1726.23 1556.82,1702.74 1568.67,1677.83 1580.51,1651.44 1592.36,1623.46 1604.21,1593.79 
  1616.05,1562.32 1627.9,1528.96 1639.75,1493.64 1651.59,1456.34 1663.44,1417.1 1675.28,1376.02 1687.13,1333.28 1698.98,1289.13 1710.82,1243.92 1722.67,1198.04 
  1734.52,1151.99 1746.36,1106.28 1758.21,1061.51 1770.06,1018.27 1781.9,977.162 1793.75,938.773 1805.59,903.652 1817.44,872.293 1829.29,845.115 1841.13,822.449 
  1852.98,804.528 1864.83,791.482 1876.67,783.332 1888.52,779.999 1900.37,781.305 1912.21,786.987 1924.06,796.708 1935.9,810.075 1947.75,826.651 1959.6,845.977 
  1971.44,867.584 1983.29,891.011 1995.14,915.816 2006.98,941.588 2018.83,967.955 2030.68,994.59 2042.52,1021.22 2054.37,1047.61 2066.21,1073.58 2078.06,1099.02 
  2089.91,1123.83 2101.75,1147.97 2113.6,1171.43 2125.45,1194.24 2137.29,1216.43 2149.14,1238.09 2160.99,1259.28 2172.83,1280.11 2184.68,1300.66 2196.52,1321.04 
  2208.37,1341.32 2220.22,1361.6 2232.06,1381.95 2243.91,1402.41 2255.76,1423.03 2267.6,1443.82 2279.45,1464.8 2291.3,1485.93 2303.14,1507.21 2314.99,1528.58 
  2326.83,1549.98 2338.68,1571.38 2350.53,1592.71 2362.37,1613.91 2374.22,1634.95 2386.07,1655.78 2397.91,1676.39 2409.76,1696.76 2421.61,1716.89 2433.45,1736.8 
  2445.3,1756.49 2457.14,1775.99 2468.99,1795.32 2480.84,1814.5 2492.68,1833.54 2504.53,1852.44 2516.38,1871.18 2528.22,1889.73 2540.07,1908.05 2551.91,1926.08 
  2563.76,1943.75 2575.61,1960.99 2587.45,1977.71 2599.3,1993.81 2611.15,2009.23 2622.99,2023.88 2634.84,2037.68 2646.69,2050.59 2658.53,2062.57 2670.38,2073.57 
  2682.22,2083.6 2694.07,2092.66 2705.92,2100.77 2717.76,2107.96 2729.61,2114.27 2741.46,2119.77 2753.3,2124.51 2765.15,2128.56 2777,2131.99 2788.84,2134.86 
  2800.69,2137.25 2812.53,2139.21 2824.38,2140.81 2836.23,2142.1 2848.07,2143.13 2859.92,2143.94 2871.77,2144.58 2883.61,2145.08 2895.46,2145.46 2907.31,2145.75 
  2919.15,2145.97 2931,2146.14 2942.84,2146.26 2954.69,2146.34 2966.54,2146.41 2978.38,2146.45 2990.23,2146.47 3002.08,2146.49 3013.92,2146.49 3025.77,2146.48 
  
  "/>
<polyline clip-path="url(#clip2702)" style="stroke:#ed5d92; stroke-width:4; stroke-opacity:1; fill:none" points="
  783.828,2146.48 794.605,2146.45 805.381,2146.39 816.157,2146.31 826.934,2146.17 837.71,2145.97 848.486,2145.67 859.262,2145.24 870.039,2144.61 880.815,2143.73 
  891.591,2142.5 902.367,2140.81 913.144,2138.52 923.92,2135.45 934.696,2131.39 945.472,2126.1 956.249,2119.32 967.025,2110.73 977.801,2100.01 988.578,2086.82 
  999.354,2070.84 1010.13,2051.77 1020.91,2029.34 1031.68,2003.4 1042.46,1973.86 1053.24,1940.79 1064.01,1904.41 1074.79,1865.09 1085.56,1823.43 1096.34,1780.16 
  1107.12,1736.22 1117.89,1692.67 1128.67,1650.7 1139.45,1611.51 1150.22,1576.34 1161,1546.35 1171.77,1522.55 1182.55,1505.78 1193.33,1496.61 1204.1,1495.34 
  1214.88,1501.98 1225.66,1516.21 1236.43,1537.41 1247.21,1564.72 1257.98,1597.05 1268.76,1633.16 1279.54,1671.72 1290.31,1711.35 1301.09,1750.74 1311.87,1788.67 
  1322.64,1824.04 1333.42,1855.96 1344.19,1883.72 1354.97,1906.85 1365.75,1925.08 1376.52,1938.34 1387.3,1946.75 1398.08,1950.6 1408.85,1950.28 1419.63,1946.3 
  1430.4,1939.22 1441.18,1929.63 1451.96,1918.09 1462.73,1905.14 1473.51,1891.23 1484.29,1876.72 1495.06,1861.86 1505.84,1846.77 1516.61,1831.42 1527.39,1815.67 
  1538.17,1799.25 1548.94,1781.78 1559.72,1762.79 1570.5,1741.77 1581.27,1718.17 1592.05,1691.46 1602.83,1661.15 1613.6,1626.83 1624.38,1588.18 1635.15,1545.01 
  1645.93,1497.3 1656.71,1445.15 1667.48,1388.85 1678.26,1328.83 1689.04,1265.69 1699.81,1200.14 1710.59,1133.01 1721.36,1065.23 1732.14,997.762 1742.92,931.595 
  1753.69,867.704 1764.47,807.007 1775.25,750.342 1786.02,698.429 1796.8,651.856 1807.57,611.056 1818.35,576.307 1829.13,547.732 1839.9,525.307 1850.68,508.884 
  1861.46,498.21 1872.23,492.954 1883.01,492.736 1893.78,497.148 1904.56,505.777 1915.34,518.22 1926.11,534.092 1936.89,553.033 1947.67,574.707 1958.44,598.798 
  1969.22,625.008 1979.99,653.049 1990.77,682.645 2001.55,713.533 2012.32,745.461 2023.1,778.196 2033.88,811.533 2044.65,845.298 2055.43,879.358 2066.2,913.622 
  2076.98,948.042 2087.76,982.613 2098.53,1017.36 2109.31,1052.35 2120.09,1087.64 2130.86,1123.31 2141.64,1159.42 2152.41,1196.02 2163.19,1233.13 2173.97,1270.72 
  2184.74,1308.75 2195.52,1347.14 2206.3,1385.76 2217.07,1424.46 2227.85,1463.08 2238.63,1501.45 2249.4,1539.37 2260.18,1576.65 2270.95,1613.08 2281.73,1648.48 
  2292.51,1682.63 2303.28,1715.35 2314.06,1746.42 2324.84,1775.64 2335.61,1802.81 2346.39,1827.75 2357.16,1850.27 2367.94,1870.23 2378.72,1887.53 2389.49,1902.11 
  2400.27,1913.97 2411.05,1923.2 2421.82,1929.96 2432.6,1934.47 2443.37,1937.05 2454.15,1938.08 2464.93,1937.98 2475.7,1937.23 2486.48,1936.28 2497.26,1935.6 
  2508.03,1935.62 2518.81,1936.69 2529.58,1939.11 2540.36,1943.09 2551.14,1948.72 2561.91,1956.02 2572.69,1964.91 2583.47,1975.21 2594.24,1986.71 2605.02,1999.12 
  2615.79,2012.14 2626.57,2025.44 2637.35,2038.72 2648.12,2051.69 2658.9,2064.11 2669.68,2075.78 2680.45,2086.53 2691.23,2096.28 2702,2104.96 2712.78,2112.57 
  2723.56,2119.12 2734.33,2124.69 2745.11,2129.35 2755.89,2133.18 2766.66,2136.29 2777.44,2138.77 2788.21,2140.73 2798.99,2142.25 2809.77,2143.42 2820.54,2144.29 
  2831.32,2144.95 2842.1,2145.43 2852.87,2145.78 2863.65,2146.02 2874.43,2146.2 2885.2,2146.32 2895.98,2146.4 2906.75,2146.45 2917.53,2146.47 2928.31,2146.48 
  
  "/>
<polyline clip-path="url(#clip2702)" style="stroke:#c68125; stroke-width:4; stroke-opacity:1; fill:none" points="
  519.448,2146.43 532.092,2146.39 544.735,2146.34 557.379,2146.27 570.022,2146.17 582.665,2146.04 595.309,2145.86 607.952,2145.62 620.596,2145.3 633.239,2144.9 
  645.883,2144.37 658.526,2143.7 671.17,2142.85 683.813,2141.76 696.456,2140.41 709.1,2138.71 721.743,2136.61 734.387,2134.03 747.03,2130.88 759.674,2127.05 
  772.317,2122.44 784.961,2116.93 797.604,2110.37 810.247,2102.64 822.891,2093.58 835.534,2083.05 848.178,2070.9 860.821,2056.97 873.465,2041.13 886.108,2023.26 
  898.752,2003.24 911.395,1981 924.038,1956.48 936.682,1929.68 949.325,1900.61 961.969,1869.36 974.612,1836.06 987.256,1800.9 999.899,1764.12 1012.54,1726.03 
  1025.19,1686.97 1037.83,1647.38 1050.47,1607.7 1063.12,1568.42 1075.76,1530.09 1088.4,1493.23 1101.05,1458.39 1113.69,1426.11 1126.33,1396.91 1138.98,1371.25 
  1151.62,1349.55 1164.26,1332.18 1176.91,1319.4 1189.55,1311.4 1202.19,1308.28 1214.84,1310.03 1227.48,1316.55 1240.12,1327.63 1252.77,1342.99 1265.41,1362.22 
  1278.05,1384.87 1290.7,1410.41 1303.34,1438.26 1315.99,1467.79 1328.63,1498.37 1341.27,1529.35 1353.92,1560.07 1366.56,1589.92 1379.2,1618.3 1391.85,1644.67 
  1404.49,1668.53 1417.13,1689.44 1429.78,1707.06 1442.42,1721.06 1455.06,1731.24 1467.71,1737.43 1480.35,1739.56 1492.99,1737.59 1505.64,1731.59 1518.28,1721.65 
  1530.92,1707.92 1543.57,1690.62 1556.21,1669.99 1568.85,1646.31 1581.5,1619.9 1594.14,1591.08 1606.78,1560.22 1619.43,1527.69 1632.07,1493.86 1644.71,1459.12 
  1657.36,1423.85 1670,1388.42 1682.65,1353.21 1695.29,1318.56 1707.93,1284.82 1720.58,1252.3 1733.22,1221.31 1745.86,1192.1 1758.51,1164.93 1771.15,1140 
  1783.79,1117.5 1796.44,1097.57 1809.08,1080.33 1821.72,1065.86 1834.37,1054.22 1847.01,1045.41 1859.65,1039.43 1872.3,1036.25 1884.94,1035.81 1897.58,1038 
  1910.23,1042.74 1922.87,1049.89 1935.51,1059.32 1948.16,1070.88 1960.8,1084.39 1973.44,1099.71 1986.09,1116.63 1998.73,1135 2011.37,1154.63 2024.02,1175.33 
  2036.66,1196.93 2049.3,1219.25 2061.95,1242.12 2074.59,1265.37 2087.24,1288.86 2099.88,1312.43 2112.52,1335.94 2125.17,1359.29 2137.81,1382.36 2150.45,1405.07 
  2163.1,1427.34 2175.74,1449.13 2188.38,1470.39 2201.03,1491.12 2213.67,1511.33 2226.31,1531.02 2238.96,1550.25 2251.6,1569.06 2264.24,1587.51 2276.89,1605.68 
  2289.53,1623.64 2302.17,1641.47 2314.82,1659.24 2327.46,1677.02 2340.1,1694.88 2352.75,1712.87 2365.39,1731.01 2378.03,1749.34 2390.68,1767.85 2403.32,1786.53 
  2415.96,1805.35 2428.61,1824.27 2441.25,1843.22 2453.9,1862.13 2466.54,1880.92 2479.18,1899.49 2491.83,1917.76 2504.47,1935.63 2517.11,1953 2529.76,1969.78 
  2542.4,1985.9 2555.04,2001.28 2567.69,2015.85 2580.33,2029.58 2592.97,2042.41 2605.62,2054.34 2618.26,2065.34 2630.9,2075.43 2643.55,2084.61 2656.19,2092.9 
  2668.83,2100.35 2681.48,2107 2694.12,2112.88 2706.76,2118.05 2719.41,2122.57 2732.05,2126.5 2744.69,2129.88 2757.34,2132.77 2769.98,2135.23 2782.62,2137.3 
  2795.27,2139.04 2807.91,2140.5 2820.56,2141.7 2833.2,2142.68 2845.84,2143.49 2858.49,2144.14 2871.13,2144.67 2883.77,2145.09 2896.42,2145.42 2909.06,2145.69 
  2921.7,2145.89 2934.35,2146.05 2946.99,2146.17 2959.63,2146.27 2972.28,2146.34 2984.92,2146.39 2997.56,2146.42 3010.21,2146.44 3022.85,2146.45 3035.49,2146.44 
  
  "/>
<polyline clip-path="url(#clip2702)" style="stroke:#00a98d; stroke-width:4; stroke-opacity:1; fill:none" points="
  829.016,2146.38 838.407,2146.3 847.797,2146.17 857.188,2145.97 866.579,2145.68 875.97,2145.27 885.36,2144.67 894.751,2143.84 904.142,2142.69 913.533,2141.11 
  922.923,2138.98 932.314,2136.14 941.705,2132.4 951.096,2127.55 960.486,2121.32 969.877,2113.44 979.268,2103.6 988.659,2091.48 998.049,2076.77 1007.44,2059.14 
  1016.83,2038.33 1026.22,2014.11 1035.61,1986.35 1045,1955 1054.39,1920.17 1063.78,1882.09 1073.18,1841.17 1082.57,1797.99 1091.96,1753.29 1101.35,1707.99 
  1110.74,1663.1 1120.13,1619.77 1129.52,1579.17 1138.91,1542.48 1148.3,1510.83 1157.69,1485.23 1167.08,1466.53 1176.47,1455.33 1185.86,1452.03 1195.26,1456.74 
  1204.65,1469.26 1214.04,1489.17 1223.43,1515.77 1232.82,1548.16 1242.21,1585.3 1251.6,1626 1260.99,1669.06 1270.38,1713.26 1279.77,1757.46 1289.16,1800.59 
  1298.55,1841.72 1307.94,1880.09 1317.34,1915.09 1326.73,1946.28 1336.12,1973.39 1345.51,1996.27 1354.9,2014.94 1364.29,2029.47 1373.68,2040.07 1383.07,2046.97 
  1392.46,2050.44 1401.85,2050.79 1411.24,2048.32 1420.63,2043.32 1430.02,2036.06 1439.41,2026.77 1448.81,2015.66 1458.2,2002.9 1467.59,1988.6 1476.98,1972.86 
  1486.37,1955.72 1495.76,1937.2 1505.15,1917.26 1514.54,1895.87 1523.93,1872.96 1533.32,1848.46 1542.71,1822.27 1552.1,1794.31 1561.49,1764.5 1570.89,1732.76 
  1580.28,1699 1589.67,1663.18 1599.06,1625.22 1608.45,1585.08 1617.84,1542.7 1627.23,1498.05 1636.62,1451.07 1646.01,1401.75 1655.4,1350.05 1664.79,1295.99 
  1674.18,1239.61 1683.57,1180.97 1692.97,1120.22 1702.36,1057.56 1711.75,993.245 1721.14,927.63 1730.53,861.139 1739.92,794.268 1749.31,727.58 1758.7,661.686 
  1768.09,597.229 1777.48,534.867 1786.87,475.249 1796.26,418.993 1805.65,366.674 1815.04,318.803 1824.44,275.818 1833.83,238.077 1843.22,205.857 1852.61,179.355 
  1862,158.69 1871.39,143.916 1880.78,135.025 1890.17,131.956 1899.56,134.609 1908.95,142.844 1918.34,156.492 1927.73,175.358 1937.12,199.226 1946.52,227.856 
  1955.91,260.989 1965.3,298.345 1974.69,339.623 1984.08,384.499 1993.47,432.629 2002.86,483.643 2012.25,537.153 2021.64,592.748 2031.03,650 2040.42,708.468 
  2049.81,767.702 2059.2,827.251 2068.6,886.673 2077.99,945.538 2087.38,1003.44 2096.77,1060.02 2106.16,1114.95 2115.55,1167.94 2124.94,1218.78 2134.33,1267.3 
  2143.72,1313.4 2153.11,1357.04 2162.5,1398.22 2171.89,1437.01 2181.28,1473.51 2190.68,1507.87 2200.07,1540.26 2209.46,1570.86 2218.85,1599.88 2228.24,1627.51 
  2237.63,1653.96 2247.02,1679.39 2256.41,1703.98 2265.8,1727.87 2275.19,1751.17 2284.58,1773.97 2293.97,1796.33 2303.36,1818.29 2312.75,1839.87 2322.15,1861.05 
  2331.54,1881.81 2340.93,1902.11 2350.32,1921.88 2359.71,1941.08 2369.1,1959.62 2378.49,1977.45 2387.88,1994.48 2397.27,2010.65 2406.66,2025.91 2416.05,2040.19 
  2425.44,2053.46 2434.83,2065.69 2444.23,2076.87 2453.62,2086.99 2463.01,2096.07 2472.4,2104.14 2481.79,2111.23 2491.18,2117.41 2500.57,2122.74 2509.96,2127.28 
  2519.35,2131.11 2528.74,2134.3 2538.13,2136.93 2547.52,2139.07 2556.91,2140.8 2566.31,2142.18 2575.7,2143.26 2585.09,2144.1 2594.48,2144.75 2603.87,2145.24 
  2613.26,2145.61 2622.65,2145.88 2632.04,2146.08 2641.43,2146.23 2650.82,2146.33 2660.21,2146.39 2669.6,2146.43 2678.99,2146.45 2688.39,2146.45 2697.78,2146.43 
  
  "/>
<polyline clip-path="url(#clip2702)" style="stroke:#8e971d; stroke-width:4; stroke-opacity:1; fill:none" points="
  608.009,2146.48 619.996,2146.45 631.984,2146.4 643.971,2146.34 655.958,2146.24 667.946,2146.12 679.933,2145.94 691.92,2145.71 703.908,2145.39 715.895,2144.97 
  727.883,2144.42 739.87,2143.69 751.857,2142.75 763.845,2141.53 775.832,2139.98 787.82,2138.02 799.807,2135.55 811.794,2132.48 823.782,2128.69 835.769,2124.05 
  847.757,2118.41 859.744,2111.63 871.731,2103.54 883.719,2093.98 895.706,2082.77 907.693,2069.75 919.681,2054.77 931.668,2037.68 943.656,2018.39 955.643,1996.81 
  967.63,1972.91 979.618,1946.7 991.605,1918.26 1003.59,1887.73 1015.58,1855.3 1027.57,1821.27 1039.55,1785.97 1051.54,1749.84 1063.53,1713.34 1075.52,1677.01 
  1087.5,1641.43 1099.49,1607.2 1111.48,1574.93 1123.47,1545.21 1135.45,1518.62 1147.44,1495.68 1159.43,1476.85 1171.42,1462.49 1183.4,1452.87 1195.39,1448.14 
  1207.38,1448.35 1219.37,1453.42 1231.35,1463.13 1243.34,1477.18 1255.33,1495.13 1267.32,1516.49 1279.3,1540.67 1291.29,1567.02 1303.28,1594.88 1315.26,1623.57 
  1327.25,1652.4 1339.24,1680.73 1351.23,1707.94 1363.21,1733.48 1375.2,1756.87 1387.19,1777.69 1399.18,1795.6 1411.16,1810.34 1423.15,1821.73 1435.14,1829.65 
  1447.13,1834.04 1459.11,1834.91 1471.1,1832.29 1483.09,1826.25 1495.08,1816.89 1507.06,1804.32 1519.05,1788.65 1531.04,1770.02 1543.03,1748.53 1555.01,1724.3 
  1567,1697.46 1578.99,1668.1 1590.97,1636.35 1602.96,1602.33 1614.95,1566.17 1626.94,1528.04 1638.92,1488.11 1650.91,1446.59 1662.9,1403.71 1674.89,1359.76 
  1686.87,1315.03 1698.86,1269.87 1710.85,1224.63 1722.84,1179.71 1734.82,1135.51 1746.81,1092.44 1758.8,1050.91 1770.79,1011.31 1782.77,974.022 1794.76,939.38 
  1806.75,907.69 1818.73,879.207 1830.72,854.134 1842.71,832.616 1854.7,814.741 1866.68,800.536 1878.67,789.975 1890.66,782.979 1902.65,779.423 1914.63,779.142 
  1926.62,781.942 1938.61,787.608 1950.6,795.911 1962.58,806.62 1974.57,819.508 1986.56,834.36 1998.55,850.982 2010.53,869.201 2022.52,888.873 2034.51,909.881 
  2046.5,932.136 2058.48,955.574 2070.47,980.157 2082.46,1005.86 2094.44,1032.68 2106.43,1060.61 2118.42,1089.65 2130.41,1119.8 2142.39,1151.04 2154.38,1183.33 
  2166.37,1216.64 2178.36,1250.88 2190.34,1285.97 2202.33,1321.79 2214.32,1358.21 2226.31,1395.07 2238.29,1432.2 2250.28,1469.43 2262.27,1506.56 2274.26,1543.42 
  2286.24,1579.82 2298.23,1615.57 2310.22,1650.52 2322.21,1684.51 2334.19,1717.4 2346.18,1749.09 2358.17,1779.48 2370.15,1808.49 2382.14,1836.06 2394.13,1862.17 
  2406.12,1886.78 2418.1,1909.91 2430.09,1931.56 2442.08,1951.76 2454.07,1970.55 2466.05,1987.96 2478.04,2004.06 2490.03,2018.9 2502.02,2032.53 2514,2045.02 
  2525.99,2056.43 2537.98,2066.82 2549.97,2076.26 2561.95,2084.81 2573.94,2092.52 2585.93,2099.46 2597.92,2105.67 2609.9,2111.22 2621.89,2116.15 2633.88,2120.51 
  2645.86,2124.36 2657.85,2127.73 2669.84,2130.67 2681.83,2133.23 2693.81,2135.43 2705.8,2137.33 2717.79,2138.94 2729.78,2140.31 2741.76,2141.47 2753.75,2142.44 
  2765.74,2143.24 2777.73,2143.91 2789.71,2144.45 2801.7,2144.9 2813.69,2145.26 2825.68,2145.55 2837.66,2145.78 2849.65,2145.96 2861.64,2146.1 2873.63,2146.22 
  2885.61,2146.3 2897.6,2146.37 2909.59,2146.42 2921.57,2146.45 2933.56,2146.48 2945.55,2146.5 2957.54,2146.51 2969.52,2146.51 2981.51,2146.51 2993.5,2146.5 
  
  "/>
<polyline clip-path="url(#clip2702)" style="stroke:#00a8cb; stroke-width:4; stroke-opacity:1; fill:none" points="
  818.165,2146.46 827.84,2146.41 837.514,2146.34 847.188,2146.23 856.863,2146.06 866.537,2145.81 876.211,2145.46 885.886,2144.95 895.56,2144.25 905.234,2143.27 
  914.909,2141.93 924.583,2140.11 934.257,2137.69 943.931,2134.51 953.606,2130.35 963.28,2125.01 972.954,2118.23 982.629,2109.73 992.303,2099.22 1001.98,2086.38 
  1011.65,2070.92 1021.33,2052.54 1031,2031 1040.67,2006.1 1050.35,1977.74 1060.02,1945.89 1069.7,1910.68 1079.37,1872.36 1089.05,1831.34 1098.72,1788.19 
  1108.39,1743.61 1118.07,1698.48 1127.74,1653.75 1137.42,1610.49 1147.09,1569.79 1156.77,1532.74 1166.44,1500.38 1176.11,1473.63 1185.79,1453.27 1195.46,1439.86 
  1205.14,1433.77 1214.81,1435.1 1224.49,1443.7 1234.16,1459.21 1243.84,1481.02 1253.51,1508.36 1263.18,1540.31 1272.86,1575.85 1282.53,1613.95 1292.21,1653.54 
  1301.88,1693.63 1311.56,1733.3 1321.23,1771.74 1330.9,1808.28 1340.58,1842.38 1350.25,1873.6 1359.93,1901.66 1369.6,1926.36 1379.28,1947.58 1388.95,1965.28 
  1398.62,1979.43 1408.3,1990.05 1417.97,1997.14 1427.65,2000.7 1437.32,2000.72 1447,1997.17 1456.67,1989.99 1466.34,1979.12 1476.02,1964.46 1485.69,1945.95 
  1495.37,1923.49 1505.04,1897.04 1514.72,1866.55 1524.39,1832.02 1534.06,1793.48 1543.74,1751.02 1553.41,1704.76 1563.09,1654.92 1572.76,1601.75 1582.44,1545.58 
  1592.11,1486.83 1601.78,1425.95 1611.46,1363.49 1621.13,1300.04 1630.81,1236.24 1640.48,1172.76 1650.16,1110.27 1659.83,1049.46 1669.5,990.971 1679.18,935.386 
  1688.85,883.227 1698.53,834.914 1708.2,790.758 1717.88,750.95 1727.55,715.554 1737.23,684.509 1746.9,657.637 1756.57,634.658 1766.25,615.209 1775.92,598.869 
  1785.6,585.184 1795.27,573.695 1804.95,563.968 1814.62,555.619 1824.29,548.334 1833.97,541.889 1843.64,536.164 1853.32,531.148 1862.99,526.937 1872.67,523.733 
  1882.34,521.83 1892.01,521.598 1901.69,523.46 1911.36,527.869 1921.04,535.283 1930.71,546.132 1940.39,560.794 1950.06,579.567 1959.73,602.647 1969.41,630.108 
  1979.08,661.887 1988.76,697.782 1998.43,737.444 2008.11,780.391 2017.78,826.019 2027.45,873.623 2037.13,922.426 2046.8,971.609 2056.48,1020.35 2066.15,1067.84 
  2075.83,1113.35 2085.5,1156.25 2095.17,1196.01 2104.85,1232.27 2114.52,1264.82 2124.2,1293.6 2133.87,1318.74 2143.55,1340.5 2153.22,1359.29 2162.89,1375.61 
  2172.57,1390.08 2182.24,1403.34 2191.92,1416.04 2201.59,1428.85 2211.27,1442.35 2220.94,1457.08 2230.61,1473.46 2240.29,1491.81 2249.96,1512.31 2259.64,1535.05 
  2269.31,1559.97 2278.99,1586.91 2288.66,1615.62 2298.34,1645.79 2308.01,1677.02 2317.68,1708.93 2327.36,1741.08 2337.03,1773.09 2346.71,1804.57 2356.38,1835.18 
  2366.06,1864.65 2375.73,1892.72 2385.4,1919.24 2395.08,1944.07 2404.75,1967.13 2414.43,1988.4 2424.1,2007.88 2433.78,2025.6 2443.45,2041.64 2453.12,2056.05 
  2462.8,2068.94 2472.47,2080.39 2482.15,2090.5 2491.82,2099.38 2501.5,2107.13 2511.17,2113.84 2520.84,2119.61 2530.52,2124.53 2540.19,2128.71 2549.87,2132.21 
  2559.54,2135.13 2569.22,2137.53 2578.89,2139.5 2588.56,2141.09 2598.24,2142.36 2607.91,2143.37 2617.59,2144.16 2627.26,2144.78 2636.94,2145.25 2646.61,2145.6 
  2656.28,2145.87 2665.96,2146.07 2675.63,2146.21 2685.31,2146.32 2694.98,2146.39 2704.66,2146.44 2714.33,2146.47 2724,2146.49 2733.68,2146.49 2743.35,2146.48 
  
  "/>
<polyline clip-path="url(#clip2702)" style="stroke:#9b7fe8; stroke-width:4; stroke-opacity:1; fill:none" points="
  725.845,2146.44 736.941,2146.39 748.037,2146.31 759.132,2146.19 770.228,2146.01 781.324,2145.77 792.42,2145.41 803.516,2144.92 814.612,2144.25 825.708,2143.32 
  836.804,2142.08 847.9,2140.42 858.996,2138.23 870.092,2135.39 881.188,2131.71 892.284,2127.04 903.38,2121.15 914.476,2113.83 925.572,2104.82 936.667,2093.88 
  947.763,2080.74 958.859,2065.15 969.955,2046.91 981.051,2025.81 992.147,2001.74 1003.24,1974.63 1014.34,1944.52 1025.43,1911.54 1036.53,1875.97 1047.63,1838.18 
  1058.72,1798.69 1069.82,1758.12 1080.91,1717.24 1092.01,1676.87 1103.11,1637.93 1114.2,1601.37 1125.3,1568.11 1136.39,1539.06 1147.49,1515.03 1158.59,1496.71 
  1169.68,1484.65 1180.78,1479.19 1191.87,1480.48 1202.97,1488.48 1214.07,1502.92 1225.16,1523.32 1236.26,1549.06 1247.35,1579.35 1258.45,1613.3 1269.55,1649.92 
  1280.64,1688.23 1291.74,1727.22 1302.83,1765.93 1313.93,1803.47 1325.03,1839.05 1336.12,1871.97 1347.22,1901.65 1358.31,1927.66 1369.41,1949.64 1380.51,1967.37 
  1391.6,1980.73 1402.7,1989.66 1413.79,1994.18 1424.89,1994.39 1435.98,1990.4 1447.08,1982.36 1458.18,1970.47 1469.27,1954.92 1480.37,1935.91 1491.46,1913.69 
  1502.56,1888.48 1513.66,1860.53 1524.75,1830.1 1535.85,1797.45 1546.94,1762.86 1558.04,1726.61 1569.14,1688.99 1580.23,1650.28 1591.33,1610.77 1602.42,1570.73 
  1613.52,1530.42 1624.62,1490.05 1635.71,1449.84 1646.81,1409.93 1657.9,1370.46 1669,1331.5 1680.1,1293.08 1691.19,1255.21 1702.29,1217.84 1713.38,1180.91 
  1724.48,1144.34 1735.58,1108.06 1746.67,1071.98 1757.77,1036.08 1768.86,1000.33 1779.96,964.762 1791.05,929.476 1802.15,894.615 1813.25,860.385 1824.34,827.047 
  1835.44,794.91 1846.53,764.316 1857.63,735.629 1868.73,709.216 1879.82,685.432 1890.92,664.6 1902.01,646.997 1913.11,632.845 1924.21,622.296 1935.3,615.434 
  1946.4,612.269 1957.49,612.746 1968.59,616.752 1979.69,624.127 1990.78,634.675 2001.88,648.182 2012.97,664.427 2024.07,683.199 2035.17,704.303 2046.26,727.571 
  2057.36,752.868 2068.45,780.092 2079.55,809.171 2090.65,840.063 2101.74,872.743 2112.84,907.2 2123.93,943.422 2135.03,981.388 2146.12,1021.05 2157.22,1062.35 
  2168.32,1105.17 2179.41,1149.36 2190.51,1194.73 2201.6,1241.03 2212.7,1288.01 2223.8,1335.33 2234.89,1382.67 2245.99,1429.67 2257.08,1475.97 2268.18,1521.22 
  2279.28,1565.09 2290.37,1607.27 2301.47,1647.51 2312.56,1685.59 2323.66,1721.36 2334.76,1754.69 2345.85,1785.55 2356.95,1813.94 2368.04,1839.92 2379.14,1863.58 
  2390.24,1885.08 2401.33,1904.58 2412.43,1922.26 2423.52,1938.33 2434.62,1953 2445.72,1966.47 2456.81,1978.93 2467.91,1990.54 2479,2001.46 2490.1,2011.81 
  2501.19,2021.69 2512.29,2031.19 2523.39,2040.34 2534.48,2049.19 2545.58,2057.72 2556.67,2065.95 2567.77,2073.84 2578.87,2081.38 2589.96,2088.53 2601.06,2095.26 
  2612.15,2101.55 2623.25,2107.37 2634.35,2112.72 2645.44,2117.57 2656.54,2121.94 2667.63,2125.83 2678.73,2129.25 2689.83,2132.24 2700.92,2134.82 2712.02,2137.02 
  2723.11,2138.89 2734.21,2140.44 2745.31,2141.73 2756.4,2142.78 2767.5,2143.63 2778.59,2144.31 2789.69,2144.85 2800.79,2145.28 2811.88,2145.6 2822.98,2145.86 
  2834.07,2146.05 2845.17,2146.19 2856.26,2146.29 2867.36,2146.37 2878.46,2146.42 2889.55,2146.46 2900.65,2146.48 2911.74,2146.49 2922.84,2146.49 2933.94,2146.47 
  
  "/>
<polyline clip-path="url(#clip2702)" style="stroke:#608cf6; stroke-width:4; stroke-opacity:1; fill:none" points="
  730.018,2146.48 740.378,2146.46 750.739,2146.42 761.099,2146.36 771.46,2146.27 781.821,2146.13 792.181,2145.95 802.542,2145.68 812.902,2145.32 823.263,2144.82 
  833.623,2144.15 843.984,2143.24 854.345,2142.03 864.705,2140.45 875.066,2138.38 885.426,2135.71 895.787,2132.31 906.148,2128 916.508,2122.6 926.869,2115.93 
  937.229,2107.74 947.59,2097.81 957.951,2085.9 968.311,2071.75 978.672,2055.15 989.032,2035.86 999.393,2013.73 1009.75,1988.61 1020.11,1960.44 1030.47,1929.24 
  1040.84,1895.1 1051.2,1858.25 1061.56,1819 1071.92,1777.78 1082.28,1735.15 1092.64,1691.76 1103,1648.38 1113.36,1605.81 1123.72,1564.96 1134.08,1526.72 
  1144.44,1491.98 1154.8,1461.6 1165.16,1436.35 1175.52,1416.88 1185.88,1403.73 1196.24,1397.25 1206.6,1397.62 1216.97,1404.83 1227.33,1418.68 1237.69,1438.81 
  1248.05,1464.68 1258.41,1495.61 1268.77,1530.81 1279.13,1569.43 1289.49,1610.55 1299.85,1653.27 1310.21,1696.67 1320.57,1739.93 1330.93,1782.27 1341.29,1823.01 
  1351.65,1861.57 1362.01,1897.49 1372.37,1930.39 1382.73,1960.03 1393.1,1986.22 1403.46,2008.87 1413.82,2027.95 1424.18,2043.47 1434.54,2055.47 1444.9,2064 
  1455.26,2069.13 1465.62,2070.91 1475.98,2069.37 1486.34,2064.54 1496.7,2056.39 1507.06,2044.92 1517.42,2030.08 1527.78,2011.83 1538.14,1990.11 1548.5,1964.89 
  1558.86,1936.14 1569.23,1903.86 1579.59,1868.1 1589.95,1828.93 1600.31,1786.47 1610.67,1740.89 1621.03,1692.43 1631.39,1641.35 1641.75,1587.96 1652.11,1532.62 
  1662.47,1475.73 1672.83,1417.68 1683.19,1358.92 1693.55,1299.87 1703.91,1240.98 1714.27,1182.66 1724.63,1125.34 1735,1069.41 1745.36,1015.24 1755.72,963.18 
  1766.08,913.555 1776.44,866.656 1786.8,822.748 1797.16,782.065 1807.52,744.808 1817.88,711.143 1828.24,681.198 1838.6,655.06 1848.96,632.769 1859.32,614.313 
  1869.68,599.629 1880.04,588.596 1890.4,581.038 1900.76,576.727 1911.13,575.383 1921.49,576.691 1931.85,580.304 1942.21,585.861 1952.57,593.004 1962.93,601.392 
  1973.29,610.725 1983.65,620.751 1994.01,631.29 2004.37,642.242 2014.73,653.591 2025.09,665.411 2035.45,677.859 2045.81,691.168 2056.17,705.633 2066.53,721.591 
  2076.89,739.398 2087.26,759.409 2097.62,781.95 2107.98,807.299 2118.34,835.661 2128.7,867.159 2139.06,901.816 2149.42,939.554 2159.78,980.196 2170.14,1023.47 
  2180.5,1069.01 2190.86,1116.42 2201.22,1165.2 2211.58,1214.88 2221.94,1264.95 2232.3,1314.92 2242.66,1364.35 2253.02,1412.83 2263.39,1460.02 2273.75,1505.65 
  2284.11,1549.5 2294.47,1591.44 2304.83,1631.38 2315.19,1669.31 2325.55,1705.24 2335.91,1739.24 2346.27,1771.38 2356.63,1801.75 2366.99,1830.46 2377.35,1857.59 
  2387.71,1883.23 2398.07,1907.44 2408.43,1930.28 2418.79,1951.79 2429.15,1971.98 2439.52,1990.89 2449.88,2008.51 2460.24,2024.85 2470.6,2039.92 2480.96,2053.73 
  2491.32,2066.3 2501.68,2077.66 2512.04,2087.83 2522.4,2096.88 2532.76,2104.86 2543.12,2111.83 2553.48,2117.86 2563.84,2123.04 2574.2,2127.44 2584.56,2131.15 
  2594.92,2134.25 2605.28,2136.8 2615.65,2138.89 2626.01,2140.59 2636.37,2141.95 2646.73,2143.03 2657.09,2143.89 2667.45,2144.55 2677.81,2145.06 2688.17,2145.46 
  2698.53,2145.75 2708.89,2145.98 2719.25,2146.14 2729.61,2146.26 2739.97,2146.35 2750.33,2146.41 2760.69,2146.45 2771.05,2146.48 2781.41,2146.49 2791.78,2146.49 
  
  "/>
<polyline clip-path="url(#clip2702)" style="stroke:#f05f73; stroke-width:4; stroke-opacity:1; fill:none" points="
  800.722,2146.48 810.055,2146.45 819.388,2146.4 828.72,2146.31 838.053,2146.19 847.386,2146.01 856.718,2145.75 866.051,2145.37 875.384,2144.85 884.717,2144.11 
  894.049,2143.11 903.382,2141.74 912.715,2139.9 922.047,2137.46 931.38,2134.27 940.713,2130.13 950.046,2124.84 959.378,2118.15 968.711,2109.8 978.044,2099.51 
  987.376,2086.98 996.709,2071.93 1006.04,2054.08 1015.37,2033.18 1024.71,2009.04 1034.04,1981.54 1043.37,1950.66 1052.71,1916.48 1062.04,1879.22 1071.37,1839.24 
  1080.7,1797.05 1090.04,1753.29 1099.37,1708.78 1108.7,1664.42 1118.03,1621.23 1127.37,1580.28 1136.7,1542.64 1146.03,1509.37 1155.37,1481.44 1164.7,1459.7 
  1174.03,1444.83 1183.36,1437.29 1192.7,1437.35 1202.03,1444.98 1211.36,1459.97 1220.69,1481.83 1230.03,1509.89 1239.36,1543.31 1248.69,1581.1 1258.02,1622.21 
  1267.36,1665.55 1276.69,1710.02 1286.02,1754.62 1295.36,1798.41 1304.69,1840.57 1314.02,1880.42 1323.35,1917.43 1332.69,1951.22 1342.02,1981.53 1351.35,2008.22 
  1360.68,2031.28 1370.02,2050.76 1379.35,2066.77 1388.68,2079.46 1398.02,2089 1407.35,2095.56 1416.68,2099.28 1426.01,2100.32 1435.35,2098.76 1444.68,2094.71 
  1454.01,2088.23 1463.34,2079.36 1472.68,2068.16 1482.01,2054.67 1491.34,2038.98 1500.68,2021.17 1510.01,2001.39 1519.34,1979.8 1528.67,1956.62 1538.01,1932.11 
  1547.34,1906.54 1556.67,1880.22 1566,1853.47 1575.34,1826.58 1584.67,1799.81 1594,1773.4 1603.33,1747.51 1612.67,1722.21 1622,1697.52 1631.33,1673.37 
  1640.67,1649.59 1650,1625.96 1659.33,1602.2 1668.66,1577.99 1678,1553.01 1687.33,1526.91 1696.66,1499.37 1705.99,1470.11 1715.33,1438.88 1724.66,1405.47 
  1733.99,1369.71 1743.33,1331.49 1752.66,1290.7 1761.99,1247.3 1771.32,1201.23 1780.66,1152.47 1789.99,1101.04 1799.32,1046.96 1808.65,990.311 1817.99,931.236 
  1827.32,869.95 1836.65,806.761 1845.99,742.09 1855.32,676.474 1864.65,610.572 1873.98,545.157 1883.32,481.098 1892.65,419.336 1901.98,360.849 1911.31,306.616 
  1920.65,257.566 1929.98,214.541 1939.31,178.252 1948.64,149.244 1957.98,127.871 1967.31,114.276 1976.64,108.388 1985.98,109.933 1995.31,118.447 2004.64,133.312 
  2013.97,153.789 2023.31,179.067 2032.64,208.311 2041.97,240.706 2051.3,275.507 2060.64,312.077 2069.97,349.916 2079.3,388.686 2088.64,428.214 2097.97,468.488 
  2107.3,509.646 2116.63,551.94 2125.97,595.708 2135.3,641.325 2144.63,689.164 2153.96,739.55 2163.3,792.719 2172.63,848.793 2181.96,907.751 2191.3,969.426 
  2200.63,1033.5 2209.96,1099.53 2219.29,1166.94 2228.63,1235.08 2237.96,1303.27 2247.29,1370.79 2256.62,1436.95 2265.96,1501.12 2275.29,1562.72 2284.62,1621.3 
  2293.95,1676.48 2303.29,1728.02 2312.62,1775.75 2321.95,1819.63 2331.29,1859.69 2340.62,1896.01 2349.95,1928.75 2359.28,1958.1 2368.62,1984.28 2377.95,2007.52 
  2387.28,2028.04 2396.61,2046.08 2405.95,2061.86 2415.28,2075.59 2424.61,2087.47 2433.95,2097.7 2443.28,2106.45 2452.61,2113.87 2461.94,2120.14 2471.28,2125.37 
  2480.61,2129.72 2489.94,2133.29 2499.27,2136.2 2508.61,2138.55 2517.94,2140.42 2527.27,2141.91 2536.61,2143.07 2545.94,2143.96 2555.27,2144.65 2564.6,2145.17 
  2573.94,2145.56 2583.27,2145.85 2592.6,2146.06 2601.93,2146.21 2611.27,2146.32 2620.6,2146.39 2629.93,2146.44 2639.27,2146.48 2648.6,2146.49 2657.93,2146.49 
  
  "/>
<path clip-path="url(#clip2700)" d="
M2271.3 1085.96 L3056.76 1085.96 L3056.76 178.764 L2271.3 178.764  Z
  " fill="#ffffff" fill-rule="evenodd" fill-opacity="1"/>
<polyline clip-path="url(#clip2700)" style="stroke:#000000; stroke-width:4; stroke-opacity:1; fill:none" points="
  2271.3,1085.96 3056.76,1085.96 3056.76,178.764 2271.3,178.764 2271.3,1085.96 
  "/>
<polyline clip-path="url(#clip2700)" style="stroke:#009af9; stroke-width:4; stroke-opacity:1; fill:none" points="
  2303.3,239.244 2495.3,239.244 
  "/>
<g clip-path="url(#clip2700)">
<text style="fill:#000000; fill-opacity:1; font-family:Arial,Helvetica Neue,Helvetica,sans-serif; font-size:48px; text-anchor:start;" transform="rotate(0, 2527.3, 256.744)" x="2527.3" y="256.744">FEMALE Associate</text>
</g>
<polyline clip-path="url(#clip2700)" style="stroke:#e26f46; stroke-width:4; stroke-opacity:1; fill:none" points="
  2303.3,299.724 2495.3,299.724 
  "/>
<g clip-path="url(#clip2700)">
<text style="fill:#000000; fill-opacity:1; font-family:Arial,Helvetica Neue,Helvetica,sans-serif; font-size:48px; text-anchor:start;" transform="rotate(0, 2527.3, 317.224)" x="2527.3" y="317.224">FEMALE College</text>
</g>
<polyline clip-path="url(#clip2700)" style="stroke:#3da44d; stroke-width:4; stroke-opacity:1; fill:none" points="
  2303.3,360.204 2495.3,360.204 
  "/>
<g clip-path="url(#clip2700)">
<text style="fill:#000000; fill-opacity:1; font-family:Arial,Helvetica Neue,Helvetica,sans-serif; font-size:48px; text-anchor:start;" transform="rotate(0, 2527.3, 377.704)" x="2527.3" y="377.704">FEMALE High School</text>
</g>
<polyline clip-path="url(#clip2700)" style="stroke:#c271d2; stroke-width:4; stroke-opacity:1; fill:none" points="
  2303.3,420.684 2495.3,420.684 
  "/>
<g clip-path="url(#clip2700)">
<text style="fill:#000000; fill-opacity:1; font-family:Arial,Helvetica Neue,Helvetica,sans-serif; font-size:48px; text-anchor:start;" transform="rotate(0, 2527.3, 438.184)" x="2527.3" y="438.184">FEMALE JD</text>
</g>
<polyline clip-path="url(#clip2700)" style="stroke:#ac8d18; stroke-width:4; stroke-opacity:1; fill:none" points="
  2303.3,481.164 2495.3,481.164 
  "/>
<g clip-path="url(#clip2700)">
<text style="fill:#000000; fill-opacity:1; font-family:Arial,Helvetica Neue,Helvetica,sans-serif; font-size:48px; text-anchor:start;" transform="rotate(0, 2527.3, 498.664)" x="2527.3" y="498.664">FEMALE MD</text>
</g>
<polyline clip-path="url(#clip2700)" style="stroke:#00a9ad; stroke-width:4; stroke-opacity:1; fill:none" points="
  2303.3,541.644 2495.3,541.644 
  "/>
<g clip-path="url(#clip2700)">
<text style="fill:#000000; fill-opacity:1; font-family:Arial,Helvetica Neue,Helvetica,sans-serif; font-size:48px; text-anchor:start;" transform="rotate(0, 2527.3, 559.144)" x="2527.3" y="559.144">FEMALE Masters</text>
</g>
<polyline clip-path="url(#clip2700)" style="stroke:#ed5d92; stroke-width:4; stroke-opacity:1; fill:none" points="
  2303.3,602.124 2495.3,602.124 
  "/>
<g clip-path="url(#clip2700)">
<text style="fill:#000000; fill-opacity:1; font-family:Arial,Helvetica Neue,Helvetica,sans-serif; font-size:48px; text-anchor:start;" transform="rotate(0, 2527.3, 619.624)" x="2527.3" y="619.624">FEMALE PhD</text>
</g>
<polyline clip-path="url(#clip2700)" style="stroke:#c68125; stroke-width:4; stroke-opacity:1; fill:none" points="
  2303.3,662.604 2495.3,662.604 
  "/>
<g clip-path="url(#clip2700)">
<text style="fill:#000000; fill-opacity:1; font-family:Arial,Helvetica Neue,Helvetica,sans-serif; font-size:48px; text-anchor:start;" transform="rotate(0, 2527.3, 680.104)" x="2527.3" y="680.104">MALE Associate</text>
</g>
<polyline clip-path="url(#clip2700)" style="stroke:#00a98d; stroke-width:4; stroke-opacity:1; fill:none" points="
  2303.3,723.084 2495.3,723.084 
  "/>
<g clip-path="url(#clip2700)">
<text style="fill:#000000; fill-opacity:1; font-family:Arial,Helvetica Neue,Helvetica,sans-serif; font-size:48px; text-anchor:start;" transform="rotate(0, 2527.3, 740.584)" x="2527.3" y="740.584">MALE College</text>
</g>
<polyline clip-path="url(#clip2700)" style="stroke:#8e971d; stroke-width:4; stroke-opacity:1; fill:none" points="
  2303.3,783.564 2495.3,783.564 
  "/>
<g clip-path="url(#clip2700)">
<text style="fill:#000000; fill-opacity:1; font-family:Arial,Helvetica Neue,Helvetica,sans-serif; font-size:48px; text-anchor:start;" transform="rotate(0, 2527.3, 801.064)" x="2527.3" y="801.064">MALE High School</text>
</g>
<polyline clip-path="url(#clip2700)" style="stroke:#00a8cb; stroke-width:4; stroke-opacity:1; fill:none" points="
  2303.3,844.044 2495.3,844.044 
  "/>
<g clip-path="url(#clip2700)">
<text style="fill:#000000; fill-opacity:1; font-family:Arial,Helvetica Neue,Helvetica,sans-serif; font-size:48px; text-anchor:start;" transform="rotate(0, 2527.3, 861.544)" x="2527.3" y="861.544">MALE JD</text>
</g>
<polyline clip-path="url(#clip2700)" style="stroke:#9b7fe8; stroke-width:4; stroke-opacity:1; fill:none" points="
  2303.3,904.524 2495.3,904.524 
  "/>
<g clip-path="url(#clip2700)">
<text style="fill:#000000; fill-opacity:1; font-family:Arial,Helvetica Neue,Helvetica,sans-serif; font-size:48px; text-anchor:start;" transform="rotate(0, 2527.3, 922.024)" x="2527.3" y="922.024">MALE MD</text>
</g>
<polyline clip-path="url(#clip2700)" style="stroke:#608cf6; stroke-width:4; stroke-opacity:1; fill:none" points="
  2303.3,965.004 2495.3,965.004 
  "/>
<g clip-path="url(#clip2700)">
<text style="fill:#000000; fill-opacity:1; font-family:Arial,Helvetica Neue,Helvetica,sans-serif; font-size:48px; text-anchor:start;" transform="rotate(0, 2527.3, 982.504)" x="2527.3" y="982.504">MALE Masters</text>
</g>
<polyline clip-path="url(#clip2700)" style="stroke:#f05f73; stroke-width:4; stroke-opacity:1; fill:none" points="
  2303.3,1025.48 2495.3,1025.48 
  "/>
<g clip-path="url(#clip2700)">
<text style="fill:#000000; fill-opacity:1; font-family:Arial,Helvetica Neue,Helvetica,sans-serif; font-size:48px; text-anchor:start;" transform="rotate(0, 2527.3, 1042.98)" x="2527.3" y="1042.98">MALE PhD</text>
</g>
</svg>
